<svg xmlns="http://www.w3.org/2000/svg" viewBox="0 0 80 80"><defs><style>.cls-1{fill:none;}.cls-2{fill:#fdd5a9;}.cls-3{fill:#e9a0a7;}.cls-4{fill:#1e1e1e;}.cls-5{fill:#fff;}</style></defs><g id="Layer_2" data-name="Layer 2"><g id="Layer_1-2" data-name="Layer 1"><rect class="cls-1" width="80" height="80"/><path id="Path_9896" data-name="Path 9896" class="cls-2" d="M34.24,27H26.32V48.33c0,8.12-3.63,14-10.87,14H8v7.43A2.26,2.26,0,0,0,10.26,72h24a2.26,2.26,0,0,0,2.27-2.26h0V29.27A2.27,2.27,0,0,0,34.25,27h0"/><path id="Path_9897" data-name="Path 9897" class="cls-3" d="M10.26,27A2.26,2.26,0,0,0,8,29.26H8v33h7.45c7.23,0,10.87-5.86,10.87-14V27Z"/><path class="cls-4" d="M50.09,12.46H50a.7.7,0,0,1-.59-.79c.37-2.53,3.84-2.76,4-2.77a.72.72,0,0,1,.74.66.71.71,0,0,1-.66.74s-2.48.19-2.68,1.57A.7.7,0,0,1,50.09,12.46Z"/><path class="cls-4" d="M50.09,12.46H50a.7.7,0,0,1-.59-.79c.2-1.38-2.1-2.26-2.12-2.27a.7.7,0,0,1,.47-1.31c.14.05,3.4,1.25,3,3.78A.7.7,0,0,1,50.09,12.46Z"/><path class="cls-4" d="M64.34,53.78a.66.66,0,0,1-.5-.22l-22.9-24a1.33,1.33,0,0,0-1.88,0l-22.9,24a.71.71,0,0,1-1,0,.7.7,0,0,1,0-1l22.9-24a2.77,2.77,0,0,1,3.9,0l22.9,24a.69.69,0,0,1-.51,1.18Z"/><path class="cls-4" d="M71.27,38.6a.7.7,0,0,1-.51-.22L58.47,25.49a1.3,1.3,0,0,0-.94-.4h0a1.27,1.27,0,0,0-.94.4l-8.94,9.37a.7.7,0,1,1-1-1l8.93-9.37a2.68,2.68,0,0,1,2-.83h0a2.66,2.66,0,0,1,1.95.83l12.3,12.9a.71.71,0,0,1,0,1A.68.68,0,0,1,71.27,38.6Z"/><path class="cls-4" d="M26.57,41.47a.66.66,0,0,1-.5-.22l-8.52-8.93a1.34,1.34,0,0,0-1.88,0l-6.49,6.8a.71.71,0,0,1-1,0,.7.7,0,0,1,0-1l6.49-6.8a2.75,2.75,0,0,1,3.9,0l8.52,8.93a.69.69,0,0,1-.51,1.18Z"/><path class="cls-4" d="M61,63.84A15.92,15.92,0,0,1,55.59,63a14.42,14.42,0,0,0-5-.77,14.42,14.42,0,0,0-5,.77,15.85,15.85,0,0,1-5.41.83A15.85,15.85,0,0,1,34.77,63a14.42,14.42,0,0,0-5-.77,14.42,14.42,0,0,0-5,.77,15.85,15.85,0,0,1-5.41.83A15.85,15.85,0,0,1,14,63a.71.71,0,0,1-.46-.88.69.69,0,0,1,.87-.46,14.42,14.42,0,0,0,5,.77,14.42,14.42,0,0,0,5-.77,15.85,15.85,0,0,1,5.41-.83,15.85,15.85,0,0,1,5.41.83,14.42,14.42,0,0,0,5,.77,14.42,14.42,0,0,0,5-.77,15.85,15.85,0,0,1,5.41-.83,15.85,15.85,0,0,1,5.41.83,14.48,14.48,0,0,0,5,.77,14.42,14.42,0,0,0,5-.77A.7.7,0,0,1,66.42,63,15.85,15.85,0,0,1,61,63.84Z"/><path class="cls-4" d="M60.93,54.38a15.85,15.85,0,0,1-5.41-.83,14.46,14.46,0,0,0-5-.77,14.37,14.37,0,0,0-5,.77,15.9,15.9,0,0,1-5.41.83,15.81,15.81,0,0,1-5.41-.83,14.46,14.46,0,0,0-5-.77,14.37,14.37,0,0,0-5,.77,15.9,15.9,0,0,1-5.41.83,15.32,15.32,0,0,1-5.35-.83A13.68,13.68,0,0,0,9,52.78a.7.7,0,1,1,0-1.4,15.32,15.32,0,0,1,5.35.83,13.68,13.68,0,0,0,4.92.77,14.35,14.35,0,0,0,5-.77,15.92,15.92,0,0,1,5.42-.83,15.9,15.9,0,0,1,5.41.83,14.37,14.37,0,0,0,5,.77,14.46,14.46,0,0,0,5-.77,15.81,15.81,0,0,1,5.41-.83,15.85,15.85,0,0,1,5.41.83,14.42,14.42,0,0,0,5,.77,14.37,14.37,0,0,0,5-.77,15.92,15.92,0,0,1,5.42-.83.7.7,0,0,1,0,1.4,14.37,14.37,0,0,0-5,.77A15.92,15.92,0,0,1,60.93,54.38Z"/><path class="cls-5" d="M31.45,21.24a3.59,3.59,0,0,0-3.85-2.9,4.13,4.13,0,0,0-3.83-2.5,4,4,0,0,0-4.07,2.69,6.51,6.51,0,0,0-2.73.32,3.14,3.14,0,0,0-2,2.39Z"/><path class="cls-4" d="M31.45,21.94H14.94a.68.68,0,0,1-.55-.26.71.71,0,0,1-.14-.58,3.83,3.83,0,0,1,2.45-2.89,6.43,6.43,0,0,1,2.53-.4,4.8,4.8,0,0,1,4.51-2.67h0A4.74,4.74,0,0,1,28,17.66a4.21,4.21,0,0,1,4.1,3.49.68.68,0,0,1-.16.55A.71.71,0,0,1,31.45,21.94Zm-15.51-1.4H30.48A3,3,0,0,0,27.6,19a.69.69,0,0,1-.66-.46,3.41,3.41,0,0,0-3.18-2h0a3.33,3.33,0,0,0-3.37,2.19.69.69,0,0,1-.75.5,5.74,5.74,0,0,0-2.39.27A2.57,2.57,0,0,0,15.94,20.54Z"/><path class="cls-5" d="M46.38,42.41a3.21,3.21,0,0,1,3.45-2.59,3.66,3.66,0,0,1,3.42-2.23A3.58,3.58,0,0,1,56.88,40a5.82,5.82,0,0,1,2.44.29,2.81,2.81,0,0,1,1.81,2.13Z"/><path class="cls-4" d="M61.13,43.11H46.38a.73.73,0,0,1-.53-.24.68.68,0,0,1-.16-.55,3.84,3.84,0,0,1,3.69-3.18,4.31,4.31,0,0,1,3.86-2.25h0a4.36,4.36,0,0,1,4.07,2.38,6.17,6.17,0,0,1,2.24.36,3.5,3.5,0,0,1,2.24,2.64.7.7,0,0,1-.69.84Zm-13.75-1.4H60.1a2.19,2.19,0,0,0-1.05-.78,5,5,0,0,0-2.1-.24.7.7,0,0,1-.75-.51,2.88,2.88,0,0,0-2.93-1.89h0a3,3,0,0,0-2.77,1.78.7.7,0,0,1-.65.45A2.65,2.65,0,0,0,47.38,41.71Z"/></g></g></svg>