<svg xmlns="http://www.w3.org/2000/svg" viewBox="0 0 80 80"><defs><style>.cls-1{fill:none;}.cls-2{fill:#e9a0a7;}.cls-3{fill:#fdd5a9;}.cls-4{fill:#1e1e1e;}</style></defs><g id="Layer_2" data-name="Layer 2"><g id="Layer_1-2" data-name="Layer 1"><rect class="cls-1" width="80" height="80"/><path class="cls-2" d="M23.47,30.21H19.19a3.73,3.73,0,0,1-2.31-.95L9,21.34A3.76,3.76,0,0,1,8,19V11.52A3.57,3.57,0,0,1,11.44,8c3.11,0,5.1,3.45,7.67,10.4Z"/><path class="cls-3" d="M29.86,47.54a3.79,3.79,0,0,1,.25,1.38,3.91,3.91,0,0,1-3.89,3.85H13.51A5.51,5.51,0,0,1,8,47.27V11.7c0-.07,0-.12,0-.18V19a3.76,3.76,0,0,0,1,2.3l7.92,7.92a3.73,3.73,0,0,0,2.31.95h4.28Z"/><path class="cls-4" d="M50.18,30a.68.68,0,0,1-.36-.1c-1.88-1.14-3.1-3.72-3.1-6.57s1.22-5.44,3.1-6.57a.67.67,0,0,1,.72,0c1.89,1.13,3.1,3.71,3.1,6.57s-1.21,5.43-3.1,6.57A.65.65,0,0,1,50.18,30Zm0-11.79a6.68,6.68,0,0,0-2.06,5.12,6.7,6.7,0,0,0,2.06,5.12,6.66,6.66,0,0,0,2.06-5.12A6.65,6.65,0,0,0,50.18,18.16Z"/><path class="cls-4" d="M52.9,37.58a6,6,0,0,1-3.08-.79.72.72,0,0,1-.34-.64c.14-2.2,1.87-4.47,4.4-5.79s5.38-1.43,7.26-.28a.68.68,0,0,1,.33.64c-.14,2.19-1.86,4.46-4.39,5.78A9.22,9.22,0,0,1,52.9,37.58Zm-2-1.78a6.64,6.64,0,0,0,5.49-.54A6.69,6.69,0,0,0,60,31.07a7.37,7.37,0,0,0-9.08,4.73Z"/><path class="cls-4" d="M47.47,42.67a9.21,9.21,0,0,1-4.18-1.07C40.75,40.28,39,38,38.89,35.81a.7.7,0,0,1,.34-.64c1.87-1.14,4.72-1,7.25.29s4.26,3.59,4.4,5.78a.68.68,0,0,1-.33.64A5.88,5.88,0,0,1,47.47,42.67Zm-7.12-6.51a6.66,6.66,0,0,0,3.58,4.2,6.7,6.7,0,0,0,5.5.53,6.72,6.72,0,0,0-3.59-4.19A6.68,6.68,0,0,0,40.35,36.16Z"/><path class="cls-4" d="M50.18,47.64a.7.7,0,0,1-.7-.7V29.64a.7.7,0,0,1,1.4,0v17.3A.7.7,0,0,1,50.18,47.64Z"/><path class="cls-4" d="M71.35,71.79h0a.71.71,0,0,1-.67-.73c0-.21.75-21.07-13-23.17-10.07-1.54-15.71,3.74-22.24,9.86-5.7,5.33-12.15,11.37-22.72,14a.7.7,0,0,1-.85-.51.71.71,0,0,1,.52-.85c10.21-2.51,16.52-8.42,22.09-13.63,6.8-6.37,12.68-11.87,23.41-10.22,15,2.29,14.21,24.39,14.2,24.61A.69.69,0,0,1,71.35,71.79Z"/><path class="cls-4" d="M8.83,71.74a.7.7,0,0,1-.69-.6c-.06-.46-1.52-11.26,3.11-16.88A8.89,8.89,0,0,1,17.92,51a56.36,56.36,0,0,1,9.31,1.1c4.34.72,10.28,1.71,11.28.91a.7.7,0,0,1,.87,1.1c-1.39,1.1-5.6.5-12.38-.62a55.58,55.58,0,0,0-9-1.1,7.56,7.56,0,0,0-5.66,2.75C8.09,60.29,9.51,70.84,9.53,71a.71.71,0,0,1-.6.79Z"/><path class="cls-4" d="M71.31,71.74H9a.7.7,0,0,1,0-1.4H71.31a.7.7,0,1,1,0,1.4Z"/><path class="cls-4" d="M8.58,40.78a.67.67,0,0,1-.24,0,.71.71,0,0,1-.42-.9L19.13,9.25A2,2,0,0,1,21,7.91h0A2,2,0,0,1,23,9.25l7,19a.7.7,0,0,1-1.31.51l-.34-.87L21.63,9.73A.61.61,0,0,0,21,9.31h0a.61.61,0,0,0-.59.42L9.24,40.32A.69.69,0,0,1,8.58,40.78Z"/><path class="cls-4" d="M25.72,39.23a1,1,0,0,1-.24,0,.71.71,0,0,1-.42-.9L31.78,20a2,2,0,0,1,1.9-1.33h0A2,2,0,0,1,35.59,20l5.49,15a.7.7,0,0,1-.42.9.69.69,0,0,1-.89-.42l-5.49-15a.62.62,0,0,0-.6-.41h0a.62.62,0,0,0-.59.41L26.38,38.77A.71.71,0,0,1,25.72,39.23Z"/><path class="cls-4" d="M71.2,40.78a.71.71,0,0,1-.66-.46L59.33,9.73a.61.61,0,0,0-.59-.42.61.61,0,0,0-.59.42L53.53,22.4a.7.7,0,1,1-1.31-.48L56.84,9.25a2,2,0,0,1,1.9-1.34,2,2,0,0,1,1.91,1.34L71.86,39.84a.7.7,0,0,1-.42.9A.67.67,0,0,1,71.2,40.78Z"/></g></g></svg>