<svg xmlns="http://www.w3.org/2000/svg" viewBox="0 0 80 80"><defs><style>.cls-1{fill:none;}.cls-2{fill:#e9a0a7;}.cls-3{fill:#fdd5a9;}.cls-4{fill:#1e1e1e;}.cls-5{fill:#fff;}</style></defs><g id="Layer_2" data-name="Layer 2"><g id="Layer_1-2" data-name="Layer 1"><rect class="cls-1" width="80" height="80"/><path class="cls-2" d="M23.55,30H19.24a3.77,3.77,0,0,1-2.31-1l-8-8A3.77,3.77,0,0,1,8,18.8V11.24a3.59,3.59,0,0,1,3.45-3.53c3.12,0,5.12,3.47,7.7,10.46Z"/><path class="cls-3" d="M30,47.45a3.64,3.64,0,0,1,.25,1.39,3.92,3.92,0,0,1-3.91,3.87H13.53A5.54,5.54,0,0,1,8,47.18V11.42c0-.06,0-.12,0-.18V18.8a3.77,3.77,0,0,0,1,2.32l8,8a3.77,3.77,0,0,0,2.31,1h4.31Z"/><path class="cls-4" d="M15.8,66.91a4.65,4.65,0,0,1-4.1-2.47,4.18,4.18,0,0,1-2.88-4,4.13,4.13,0,0,1,.41-1.8,4.43,4.43,0,0,1,1.9-7.26,4.66,4.66,0,0,1,9.31,0,4.43,4.43,0,0,1,1.9,7.27,4.08,4.08,0,0,1,.41,1.79,4.16,4.16,0,0,1-2.83,4A4.66,4.66,0,0,1,15.8,66.91Zm0-18.59a3.26,3.26,0,0,0-3.26,3.25,1.62,1.62,0,0,0,0,.31l.07.66-.66.1A3,3,0,0,0,10.55,58l.5.41-.36.53a2.71,2.71,0,0,0-.47,1.54,2.77,2.77,0,0,0,2.13,2.71l.34.08.14.32a3.25,3.25,0,0,0,6,0l.14-.32.34-.08a2.77,2.77,0,0,0,2.09-2.7,2.74,2.74,0,0,0-.47-1.54l-.35-.53L21,58a3,3,0,0,0-1.41-5.35l-.65-.1.07-.66c0-.1,0-.21,0-.31A3.26,3.26,0,0,0,15.79,48.32Z"/><path class="cls-4" d="M15.79,71.14a.7.7,0,0,1-.7-.7V55.71a.7.7,0,1,1,1.4,0V70.44A.7.7,0,0,1,15.79,71.14Z"/><path class="cls-4" d="M15.79,61.15a.69.69,0,0,1-.55-.27l-1.8-2.28a.7.7,0,0,1,.12-1,.69.69,0,0,1,1,.12L16.34,60a.7.7,0,0,1-.55,1.13Z"/><path class="cls-4" d="M70.9,71.83H8.8a.7.7,0,1,1,0-1.4H70.9a.7.7,0,0,1,0,1.4Z"/><path class="cls-4" d="M11.09,17.81H11A.72.72,0,0,1,10.4,17c.23-1.23-1.84-2.09-1.86-2.1A.7.7,0,0,1,8.15,14a.71.71,0,0,1,.91-.39c.13.05,3.15,1.28,2.72,3.65A.7.7,0,0,1,11.09,17.81Z"/><path class="cls-4" d="M11.09,17.81H11A.72.72,0,0,1,10.4,17c.43-2.36,3.68-2.47,3.82-2.48a.74.74,0,0,1,.72.69.7.7,0,0,1-.68.71S12,16,11.78,17.23A.7.7,0,0,1,11.09,17.81Z"/><path class="cls-4" d="M69.27,38.35a.71.71,0,0,1-.67-.49c-.36-1.19-2.59-1-2.61-1a.7.7,0,0,1-.13-1.4c.13,0,3.38-.29,4.08,2a.69.69,0,0,1-.46.87A.76.76,0,0,1,69.27,38.35Z"/><path class="cls-4" d="M69.27,38.35a.71.71,0,0,1-.67-.49c-.7-2.3,2.15-3.88,2.27-4a.7.7,0,0,1,.67,1.23s-2,1.12-1.6,2.31a.69.69,0,0,1-.46.87A.76.76,0,0,1,69.27,38.35Z"/><path class="cls-4" d="M60.81,71a.7.7,0,0,1-.7-.7v-57H41.55V31.8a.7.7,0,1,1-1.4,0V12.58a.7.7,0,0,1,.7-.7h20a.7.7,0,0,1,.7.7V70.3A.7.7,0,0,1,60.81,71Z"/><path class="cls-4" d="M57.71,13.28H44a.7.7,0,0,1-.7-.7V8.87a.7.7,0,0,1,.7-.7H57.71a.7.7,0,0,1,.7.7v3.71A.7.7,0,0,1,57.71,13.28Zm-13.06-1.4H57V9.57H44.65Z"/><path class="cls-4" d="M53,64.16a.7.7,0,0,1-.7-.7v-44a.7.7,0,0,1,1.4,0v44A.7.7,0,0,1,53,64.16Z"/><path class="cls-4" d="M48.61,64.16a.7.7,0,0,1-.7-.7v-44a.7.7,0,0,1,1.4,0v44A.7.7,0,0,1,48.61,64.16Z"/><path class="cls-4" d="M43.45,65.61a.7.7,0,0,1-.7-.7V35.64a.38.38,0,0,0,0-.16c-.3-.69-1.66-3.19-6.2-6.26a15.65,15.65,0,0,0-7.25-2.73V64.91a.7.7,0,0,1-1.4,0V25.76a.7.7,0,0,1,.68-.7,15.93,15.93,0,0,1,8.76,3C42,31.25,43.56,33.91,44,34.91a1.77,1.77,0,0,1,.15.73V64.91A.7.7,0,0,1,43.45,65.61Z"/><path class="cls-4" d="M43.45,71.12a.71.71,0,0,1-.7-.7V43.26a20.1,20.1,0,0,0-7.12-9.45,15.49,15.49,0,0,0-6.36-2.7V70.42a.7.7,0,0,1-1.4,0V30.36a.7.7,0,0,1,.67-.7c.14,0,3.26-.1,7.86,3a21.21,21.21,0,0,1,7.72,10.3.66.66,0,0,1,0,.21V70.42A.7.7,0,0,1,43.45,71.12Z"/><path class="cls-4" d="M43.34,71.29a.7.7,0,0,1-.68-.56,36.1,36.1,0,0,0-14.5-22.42A.7.7,0,1,1,29,47.18,37.86,37.86,0,0,1,44,70.44a.7.7,0,0,1-.53.83Z"/><line class="cls-5" x1="31.23" y1="25.76" x2="31.23" y2="18.54"/><path class="cls-4" d="M31.23,26.46a.7.7,0,0,1-.7-.7V18.54a.7.7,0,1,1,1.4,0v7.22A.7.7,0,0,1,31.23,26.46Z"/></g></g></svg>