<svg id="Layer_1" data-name="Layer 1" xmlns="http://www.w3.org/2000/svg" viewBox="0 0 80 80"><defs><style>.cls-1{fill:#fdd5a9;}.cls-2{fill:#e9a0a7;}.cls-3,.cls-4{fill:none;}.cls-3{stroke:#1d1d1b;stroke-linecap:round;stroke-miterlimit:10;stroke-width:1.5px;}</style></defs><path class="cls-1" d="M69.44,7.79h-9v24.3c0,9.24-4.1,15.92-12.27,15.92H39.8v8.46a2.57,2.57,0,0,0,2.55,2.58H69.44A2.57,2.57,0,0,0,72,56.47V10.37A2.56,2.56,0,0,0,69.44,7.79Z"/><path class="cls-2" d="M42.35,7.79a2.56,2.56,0,0,0-2.55,2.58V48h8.41c8.17,0,12.27-6.68,12.27-15.92V7.79Z"/><path class="cls-3" d="M41.34,36.42,32.68,16.15c-.49-1.13-1.27-1.13-1.75,0L8.57,71.39"/><path class="cls-3" d="M67.78,63.17,50.17,20.78c-.48-1.13-1.27-1.13-1.75,0L42.57,34.47"/><path class="cls-3" d="M42.57,34.47c2.57.09,5.66.52,7.91,2.49a5.25,5.25,0,0,1,1.69,4.22C52,44.63,50,46.93,48.1,48.64c-2.88,2.67-7.2,6-6.32,12.06a7.84,7.84,0,0,0,3,5.14c2.24,1.67,4.94,2,7.39,2.61"/><path class="cls-3" d="M41.46,36.55s6.76,1.35,3.78,6.25S24.62,52.71,30.9,68.45l1.31,2.81"/><path class="cls-3" d="M62.13,34.85h9.3s-.51-3.27-5-3.27a4.8,4.8,0,0,0-4.92-2.82c-3.45.25-4,2.61-4,2.61"/><path class="cls-3" d="M20.46,20.44H11.15s.51-3.73,5-3.73A4.87,4.87,0,0,1,21,13.5a4.16,4.16,0,0,1,4,3"/><path class="cls-3" d="M36.62,26.46s-.67,5-3,7.16S28.73,36.51,27,39.26c-1.31,2.1-5.8,5-7.87,6.28"/><rect class="cls-4" width="80" height="80"/></svg>