<svg id="Layer_1" data-name="Layer 1" xmlns="http://www.w3.org/2000/svg" viewBox="0 0 80 80"><defs><style>.cls-1{fill:#fdd5a9;}.cls-2{fill:#e9a0a7;}.cls-3,.cls-4{fill:none;}.cls-3{stroke:#1d1d1b;stroke-linecap:round;stroke-miterlimit:10;stroke-width:1.6px;}</style></defs><path class="cls-1" d="M67.16,40.81H44v-.06c5.88-1.9,10.31-6.15,10.31-12.94,0-3.11-1-6.9-5.08-10.5A13.1,13.1,0,0,0,44,27.82V43.2a13.12,13.12,0,1,0,26.23,0V40.13A6.53,6.53,0,0,1,67.16,40.81Z"/><path class="cls-2" d="M57.06,14.7a13.06,13.06,0,0,0-7.85,2.61c4.1,3.6,5.08,7.39,5.08,10.5,0,6.79-4.43,11-10.31,12.94v.06H67.16a6.53,6.53,0,0,0,3-.68V27.82A13.12,13.12,0,0,0,57.06,14.7Z"/><path class="cls-3" d="M11.66,71.83,27.3,30.57c1.23-3.22,3.79-3.22,5,0L47.65,71"/><path class="cls-3" d="M37.72,44.1l9.73-25.35c.91-2.38,2.81-2.38,3.73,0l9.53,24.84"/><path class="cls-3" d="M30.82,19.39s4.5.91,4.5,3.95"/><path class="cls-3" d="M39.81,19.39s-4.49.91-4.49,3.95"/><path class="cls-3" d="M20.18,9.08s4.5.92,4.5,3.95"/><path class="cls-3" d="M29.17,9.08S24.68,10,24.68,13"/><path class="cls-3" d="M71.29,52.27a7.18,7.18,0,0,0-8.9-6.94,4.56,4.56,0,0,0-3.88-2.16A4.47,4.47,0,0,0,54,47.64c0,.31-.69.74-1.09.74a4.49,4.49,0,0,0-4.61,3.88"/><path class="cls-3" d="M8.91,42.61a3.09,3.09,0,0,1,3-3,4.67,4.67,0,0,1,.91.15.3.3,0,0,0,.32-.15,2.6,2.6,0,0,1,2.55-1.54c1.61.15,2.41,1,2.45,2.21a.21.21,0,0,0,.25.19,4.06,4.06,0,0,1,2.77.08,2.75,2.75,0,0,1,1.27,2"/><rect class="cls-4" width="80" height="80"/></svg>