<svg xmlns="http://www.w3.org/2000/svg" viewBox="0 0 80 80"><defs><style>.cls-1{fill:#e9a0a7;}.cls-2{fill:#fdd5a9;}.cls-3{fill:none;}.cls-4{fill:#1d1d1b;}</style></defs><g id="Layer_2" data-name="Layer 2"><g id="Layer_1-2" data-name="Layer 1"><path class="cls-1" d="M24,49.17h-4.3a3.77,3.77,0,0,1-2.32-1l-8-8a3.77,3.77,0,0,1-1-2.32V30.37a3.6,3.6,0,0,1,3.45-3.53c3.13,0,5.13,3.47,7.71,10.46Z"/><path class="cls-2" d="M30.42,66.58A3.84,3.84,0,0,1,30.66,68a3.92,3.92,0,0,1-3.91,3.87H14a5.53,5.53,0,0,1-5.53-5.53V30.55c0-.06,0-.12,0-.18v7.56a3.77,3.77,0,0,0,1,2.32l8,8a3.77,3.77,0,0,0,2.32,1H24Z"/><rect class="cls-3" width="80" height="80"/><path class="cls-4" d="M71.18,15.66h-18a.7.7,0,0,1-.69-.84,4.14,4.14,0,0,1,2.63-3.11,7.15,7.15,0,0,1,2.77-.42,5.15,5.15,0,0,1,4.86-2.9h0a5.08,5.08,0,0,1,4.6,2.73,4.54,4.54,0,0,1,4.44,3.74.7.7,0,0,1-.16.56A.73.73,0,0,1,71.18,15.66Zm-17-1.4h16A3.28,3.28,0,0,0,67,12.51a.71.71,0,0,1-.66-.46,3.75,3.75,0,0,0-3.51-2.26h0a3.66,3.66,0,0,0-3.72,2.42.69.69,0,0,1-.75.5,6.38,6.38,0,0,0-2.63.3A2.84,2.84,0,0,0,54.21,14.26Z"/><path class="cls-4" d="M22.13,30.38H10.19a.69.69,0,0,1-.54-.25.7.7,0,0,1-.15-.59,4.22,4.22,0,0,1,2.69-3.17A7.28,7.28,0,0,1,15,25.93a5.3,5.3,0,0,1,5-3h0a5.19,5.19,0,0,1,4.2,2,.7.7,0,0,1-.12,1,.69.69,0,0,1-1-.12,3.85,3.85,0,0,0-3.1-1.47h0a3.78,3.78,0,0,0-3.85,2.5.69.69,0,0,1-.75.51,6.33,6.33,0,0,0-2.72.31A2.9,2.9,0,0,0,11.17,29h11a.7.7,0,0,1,0,1.4Z"/><path class="cls-4" d="M41.42,72a.67.67,0,0,1-.24,0,.7.7,0,0,1-.42-.9L54.5,33.52a2.29,2.29,0,0,1,4.3,0L70,63.51a.7.7,0,0,1-1.32.49L57.48,34a.89.89,0,0,0-1.67,0L42.08,71.49A.72.72,0,0,1,41.42,72Z"/><path class="cls-4" d="M61.27,42.09a.67.67,0,0,1-.24,0,.7.7,0,0,1-.42-.9l5.21-14.21a1.67,1.67,0,0,1,1.58-1.1h0A1.68,1.68,0,0,1,69,26.94l2.81,7.53a.7.7,0,0,1-1.32.48l-2.8-7.52a.29.29,0,0,0-.28-.19h0a.27.27,0,0,0-.27.18L61.93,41.63A.71.71,0,0,1,61.27,42.09Z"/><path class="cls-4" d="M8.71,48.6a.67.67,0,0,1-.24,0,.71.71,0,0,1-.42-.9l3.37-9.2a1.67,1.67,0,0,1,3.13,0l2.65,7.11a.7.7,0,1,1-1.32.48l-2.65-7.11a.25.25,0,0,0-.25-.17.24.24,0,0,0-.24.17l-3.37,9.2A.71.71,0,0,1,8.71,48.6Z"/><path class="cls-4" d="M11.2,61.07A.67.67,0,0,1,11,61a.71.71,0,0,1-.42-.9L26.28,17.18a2.33,2.33,0,0,1,2.2-1.54h0a2.32,2.32,0,0,1,2.19,1.54l16,41.32a.7.7,0,1,1-1.3.5l-16-41.33a.9.9,0,0,0-.89-.63.93.93,0,0,0-.88.62l-15.74,43A.72.72,0,0,1,11.2,61.07Z"/><path class="cls-4" d="M46,30.55a5.5,5.5,0,1,1,5.5-5.5A5.51,5.51,0,0,1,46,30.55ZM46,21a4.1,4.1,0,1,0,4.1,4.1A4.11,4.11,0,0,0,46,21Z"/></g></g></svg>