<svg xmlns="http://www.w3.org/2000/svg" viewBox="0 0 80 80"><defs><style>.cls-1{fill:none;}.cls-2{fill:#e9a0a7;}.cls-3{fill:#fdd5a9;}.cls-4{fill:#1e1e1e;}</style></defs><g id="Layer_2" data-name="Layer 2"><g id="Layer_1-2" data-name="Layer 1"><rect class="cls-1" width="80" height="80"/><path class="cls-2" d="M23.55,40.13H19.24a3.77,3.77,0,0,1-2.31-1l-8-8a3.77,3.77,0,0,1-1-2.32V21.33a3.59,3.59,0,0,1,3.45-3.53c3.12,0,5.12,3.47,7.7,10.46Z"/><path class="cls-3" d="M30,57.54a3.64,3.64,0,0,1,.25,1.39,3.92,3.92,0,0,1-3.91,3.87H13.53A5.54,5.54,0,0,1,8,57.27V21.51c0-.06,0-.12,0-.18v7.56a3.77,3.77,0,0,0,1,2.32l8,8a3.77,3.77,0,0,0,2.31,1h4.31Z"/><path class="cls-4" d="M60.73,64.19a15.85,15.85,0,0,1-5.41-.83,14.66,14.66,0,0,0-5-.77,14.66,14.66,0,0,0-5,.77,15.85,15.85,0,0,1-5.41.83,15.85,15.85,0,0,1-5.41-.83,14.71,14.71,0,0,0-5-.77,14.62,14.62,0,0,0-5,.77,15.85,15.85,0,0,1-5.41.83,15.85,15.85,0,0,1-5.41-.83.69.69,0,0,1-.46-.87.7.7,0,0,1,.87-.47,14.42,14.42,0,0,0,5,.77,14.42,14.42,0,0,0,5-.77,15.85,15.85,0,0,1,5.41-.83,15.85,15.85,0,0,1,5.41.83,14.42,14.42,0,0,0,5,.77,14.42,14.42,0,0,0,5-.77,15.85,15.85,0,0,1,5.41-.83,15.85,15.85,0,0,1,5.41.83,14.42,14.42,0,0,0,5,.77,14.44,14.44,0,0,0,5-.77.7.7,0,0,1,.87.47.69.69,0,0,1-.46.87A15.88,15.88,0,0,1,60.73,64.19Z"/><path class="cls-4" d="M59.76,71.89a14.56,14.56,0,0,1-5.18-.84,13.34,13.34,0,0,0-4.75-.76,13.38,13.38,0,0,0-4.75.76,14.49,14.49,0,0,1-5.17.84,14.56,14.56,0,0,1-5.18-.84A13.34,13.34,0,0,0,30,70.29a13.28,13.28,0,0,0-4.74.76,14.56,14.56,0,0,1-5.18.84,5.53,5.53,0,0,1-2.15-.3.69.69,0,0,1-.35-.92.7.7,0,0,1,.92-.36,4.1,4.1,0,0,0,1.58.18,13.3,13.3,0,0,0,4.75-.77A14.54,14.54,0,0,1,30,68.89a14.6,14.6,0,0,1,5.18.83,13.3,13.3,0,0,0,4.75.77,13.24,13.24,0,0,0,4.74-.77,14.6,14.6,0,0,1,5.18-.83,14.6,14.6,0,0,1,5.18.83,13.3,13.3,0,0,0,4.75.77,3,3,0,0,0,1.47-.26.7.7,0,0,1,1,.23.71.71,0,0,1-.24,1A4.23,4.23,0,0,1,59.76,71.89Z"/><path class="cls-4" d="M71.16,28.9H54.64a.7.7,0,0,1-.54-.26.71.71,0,0,1-.14-.58,3.84,3.84,0,0,1,2.45-2.9,6.38,6.38,0,0,1,2.53-.39,4.8,4.8,0,0,1,4.51-2.67h0a4.75,4.75,0,0,1,4.27,2.51,4.23,4.23,0,0,1,4.1,3.49.71.71,0,0,1-.16.56A.73.73,0,0,1,71.16,28.9ZM55.65,27.5H70.19A3,3,0,0,0,67.3,26a.69.69,0,0,1-.65-.46,3.4,3.4,0,0,0-3.18-2h0a3.33,3.33,0,0,0-3.37,2.18.7.7,0,0,1-.75.51,5.74,5.74,0,0,0-2.39.27A2.52,2.52,0,0,0,55.65,27.5Z"/><path class="cls-4" d="M11.64,54.29a.71.71,0,0,1-.65-.94L26.92,9.87a2.7,2.7,0,0,1,5.07,0l6.2,16.93a.7.7,0,0,1-.42.9.69.69,0,0,1-.89-.42L30.67,10.35a1.3,1.3,0,0,0-2.44,0L12.3,53.83A.7.7,0,0,1,11.64,54.29Z"/><path class="cls-4" d="M43.61,27.7a.67.67,0,0,1-.24,0,.7.7,0,0,1-.42-.9L47.3,14.88a2.7,2.7,0,0,1,5.07,0l4.1,11.18a.7.7,0,0,1-1.31.48l-4.1-11.18a1.3,1.3,0,0,0-2.44,0L44.26,27.24A.68.68,0,0,1,43.61,27.7Z"/><path class="cls-4" d="M65.94,54.64a.71.71,0,0,1-.66-.46L56,28.87a.7.7,0,0,1,.41-.9.69.69,0,0,1,.9.41L66.6,53.7a.7.7,0,0,1-.42.9A.67.67,0,0,1,65.94,54.64Z"/><path class="cls-4" d="M33.92,20.35a4.12,4.12,0,0,1-2.13-.74,4.71,4.71,0,0,1-1.31-1.32l-.07-.09a5.8,5.8,0,0,0-.85-1.07,3.71,3.71,0,0,0-1.44-.76l-.36-.1c-.23-.07-.45-.13-.67-.21A2.44,2.44,0,0,1,25.69,15a.7.7,0,0,1,1.23-.67,1.14,1.14,0,0,0,.65.45l.56.17.4.11a5.1,5.1,0,0,1,2,1,7.33,7.33,0,0,1,1.08,1.33l.06.1a3.65,3.65,0,0,0,.94.94,2.17,2.17,0,0,0,1.6.46.71.71,0,0,1,.88.46.7.7,0,0,1-.46.88A2.22,2.22,0,0,1,33.92,20.35Z"/><path class="cls-4" d="M45.61,24a2.28,2.28,0,0,1-.63-.09.7.7,0,1,1,.4-1.34,2.1,2.1,0,0,0,1.48-.42,3.12,3.12,0,0,0,.86-.84l.07-.09a6,6,0,0,1,1-1.21,4.83,4.83,0,0,1,1.86-1L51,19c.18-.05.36-.09.53-.15a1.08,1.08,0,0,0,.59-.39.7.7,0,1,1,1.22.69,2.35,2.35,0,0,1-1.34,1c-.21.07-.42.13-.64.18l-.33.09a3.77,3.77,0,0,0-1.33.68,5,5,0,0,0-.78,1l-.07.09a4.53,4.53,0,0,1-1.25,1.22A4,4,0,0,1,45.61,24Z"/><path class="cls-4" d="M60.73,55.94a15.85,15.85,0,0,1-5.41-.83,14.71,14.71,0,0,0-5-.77,14.62,14.62,0,0,0-5,.77,15.9,15.9,0,0,1-5.41.83,15.92,15.92,0,0,1-5.42-.83,14.62,14.62,0,0,0-5-.77,14.6,14.6,0,0,0-5,.77,15.9,15.9,0,0,1-5.41.83,15.85,15.85,0,0,1-5.41-.83,14.66,14.66,0,0,0-5-.77.7.7,0,0,1,0-1.4,16.11,16.11,0,0,1,5.41.83,14.42,14.42,0,0,0,5,.77,14.35,14.35,0,0,0,5-.77,16.16,16.16,0,0,1,5.41-.83,16.18,16.18,0,0,1,5.42.83,14.37,14.37,0,0,0,5,.77,14.46,14.46,0,0,0,5-.77,16.06,16.06,0,0,1,5.41-.83,16.16,16.16,0,0,1,5.41.83,14.42,14.42,0,0,0,5,.77,14.37,14.37,0,0,0,5-.77,16.18,16.18,0,0,1,5.42-.83.7.7,0,0,1,0,1.4,14.73,14.73,0,0,0-5,.77A15.81,15.81,0,0,1,60.73,55.94Z"/><path class="cls-4" d="M37.66,55.1h-.08a.7.7,0,0,1-.61-.78c0-.08,1-8.48.89-10.86A4.42,4.42,0,0,0,37,41.79a5.56,5.56,0,0,1-1.19-2.87c0-3.67,1.11-11.65,1.15-12a.71.71,0,0,1,.7-.6,3.87,3.87,0,0,1,2.19.52,1.48,1.48,0,0,0,.89.24,1.6,1.6,0,0,0,1-.34,3.37,3.37,0,0,1,2-.59.71.71,0,0,1,.7.62C45,31,45.84,37.21,46.23,38a8.32,8.32,0,0,0,1.56,1.56c1.18,1,2.51,2.17,2.87,3.46.81,2.92,1.93,9.71,2,10a.7.7,0,0,1-1.38.23c0-.08-1.16-7-1.95-9.85-.25-.89-1.46-1.94-2.43-2.78a8.06,8.06,0,0,1-1.89-2c-.59-1.15-1.51-8.32-1.84-11a2.53,2.53,0,0,0-.62.3,3,3,0,0,1-1.76.55,2.86,2.86,0,0,1-1.58-.42,2.17,2.17,0,0,0-.9-.31c-.26,2-1,8.17-1,11.16a4.64,4.64,0,0,0,1,2.11,5.09,5.09,0,0,1,1,2.39c.07,2.48-.86,10.71-.9,11.06A.7.7,0,0,1,37.66,55.1Z"/><path class="cls-4" d="M41.86,52.73h0a.7.7,0,0,1-.65-.75L41.55,47a.72.72,0,0,1,.75-.65.71.71,0,0,1,.65.76l-.39,5A.71.71,0,0,1,41.86,52.73Z"/></g></g></svg>