<svg xmlns="http://www.w3.org/2000/svg" viewBox="0 0 80 80"><defs><style>.cls-1{fill:#e9a0a7;}.cls-2{fill:#fdd5a9;}.cls-3{fill:none;}.cls-4{fill:#1d1d1b;}</style></defs><g id="Layer_2" data-name="Layer 2"><g id="Layer_1-2" data-name="Layer 1"><path class="cls-1" d="M62.25,34.53a1.41,1.41,0,0,0-1.41,1.41V56.51h4.64c4.51,0,6.77-3.65,6.77-8.7V34.53Z"/><path class="cls-2" d="M67.88,11.51c-4,0-6.53,7-8.51,12.61L52.3,44.19c-.92,2.62-2.17,6.36-2.17,8.27,0,2.28,1.37,4,4.62,4h6.09V35.94a1.41,1.41,0,0,1,1.41-1.41h10v-15C72.25,14.8,71.28,11.51,67.88,11.51Z"/><rect class="cls-3" width="80" height="80"/><path class="cls-4" d="M8.77,35.2a.73.73,0,0,1-.25,0,.69.69,0,0,1-.4-.9l9.24-24.4C17.82,8.66,18.6,8,19.5,8s1.68.68,2.13,1.88l9.07,24.4a.7.7,0,0,1-.41.9.71.71,0,0,1-.9-.41l-9.07-24.4c-.25-.67-.6-1-.82-1s-.57.3-.83,1L9.43,34.75A.71.71,0,0,1,8.77,35.2Z"/><path class="cls-4" d="M40.91,35.68a.71.71,0,0,1-.66-.46L34,18.5c-.16-.42-.34-.54-.37-.54s-.21.12-.37.55L29,29.75a.7.7,0,1,1-1.3-.5L32,18a1.89,1.89,0,0,1,1.68-1.45A1.91,1.91,0,0,1,35.35,18l6.22,16.72a.7.7,0,0,1-.42.9A.67.67,0,0,1,40.91,35.68Z"/><path class="cls-4" d="M48.79,35.68a.59.59,0,0,1-.25,0,.69.69,0,0,1-.4-.9L57.6,10.09C58.13,8.7,59,7.91,60.06,7.91h0c1,0,1.94.79,2.47,2.18L71.8,34.24a.7.7,0,0,1-.41.9.69.69,0,0,1-.9-.4L61.22,10.59c-.3-.79-.75-1.28-1.16-1.28h0c-.41,0-.85.49-1.16,1.28L49.45,35.23A.7.7,0,0,1,48.79,35.68Z"/><path class="cls-4" d="M58.9,57.88a.79.79,0,0,1-.39-.11.71.71,0,0,1-.2-1l5.94-9c-18.11,4.57-41,1.24-48.45-1.07l6.07,10.1a.7.7,0,1,1-1.2.72L13.55,45.66a.71.71,0,0,1,.1-.85.7.7,0,0,1,.84-.12c3.78,2.1,31.39,6.91,51.17,1.24a.68.68,0,0,1,.75.26.66.66,0,0,1,0,.79l-7,10.58A.67.67,0,0,1,58.9,57.88Z"/><path class="cls-4" d="M60.73,58a16.18,16.18,0,0,1-5.42-.83,14.37,14.37,0,0,0-5-.77,14.42,14.42,0,0,0-5,.77A16.11,16.11,0,0,1,39.9,58a16.11,16.11,0,0,1-5.41-.83,14.42,14.42,0,0,0-5-.77,14.42,14.42,0,0,0-5,.77,16.11,16.11,0,0,1-5.41.83,16.11,16.11,0,0,1-5.41-.83,14.35,14.35,0,0,0-5-.77.7.7,0,1,1,0-1.4,15.79,15.79,0,0,1,5.4.83,14.71,14.71,0,0,0,5,.77,14.66,14.66,0,0,0,5-.77A15.85,15.85,0,0,1,29.49,55a15.85,15.85,0,0,1,5.41.83,14.66,14.66,0,0,0,5,.77,14.66,14.66,0,0,0,5-.77A15.85,15.85,0,0,1,50.31,55a15.85,15.85,0,0,1,5.41.83,16.65,16.65,0,0,0,10,0A15.85,15.85,0,0,1,71.14,55a.7.7,0,0,1,0,1.4,14.42,14.42,0,0,0-5,.77A16.11,16.11,0,0,1,60.73,58Z"/><path class="cls-4" d="M60.73,65.92a15.92,15.92,0,0,1-5.42-.83,14.37,14.37,0,0,0-5-.77h-.2a.7.7,0,1,1,0-1.4h.2a16,16,0,0,1,5.42.83,14.37,14.37,0,0,0,5,.77,14.74,14.74,0,0,0,5-.76l.42,1.33A16,16,0,0,1,60.73,65.92Z"/><path class="cls-4" d="M39.9,65.92a15.9,15.9,0,0,1-5.41-.83,14.37,14.37,0,0,0-5-.77,14.35,14.35,0,0,0-5,.77,15.92,15.92,0,0,1-5.42.83,15.83,15.83,0,0,1-5.4-.83.7.7,0,0,1-.47-.87.71.71,0,0,1,.88-.47h0a14.4,14.4,0,0,0,5,.77,14.48,14.48,0,0,0,5-.77,15.79,15.79,0,0,1,5.4-.83,15.92,15.92,0,0,1,5.42.83,14.35,14.35,0,0,0,5,.77,14.66,14.66,0,0,0,3.73-.41.69.69,0,0,1,.85.51.71.71,0,0,1-.51.85A15.87,15.87,0,0,1,39.9,65.92Z"/><path class="cls-4" d="M44.87,62.54a.71.71,0,0,1-.55-.26L28.06,41.86a.68.68,0,0,1,.11-1,.7.7,0,0,1,1,.11L45.41,61.4a.7.7,0,0,1-.54,1.14Z"/><path class="cls-4" d="M50.07,72.05l-.42,0a3.66,3.66,0,0,1-2.47-1.37l-3.34-4.18a3.69,3.69,0,1,1,5.77-4.6L53,66.06a3.69,3.69,0,0,1-2.88,6ZM46.72,61.89a2.26,2.26,0,0,0-1.42.5,2.21,2.21,0,0,0-.84,1.53,2.25,2.25,0,0,0,.48,1.68l3.33,4.19a2.28,2.28,0,0,0,3.22.36h0a2.27,2.27,0,0,0,.36-3.21l-3.33-4.19A2.28,2.28,0,0,0,47,61.9Z"/><path class="cls-4" d="M27,43.44a.71.71,0,0,1-.55-.26.7.7,0,0,1,.11-1l3.31-2.64a.71.71,0,0,1,1,.11.69.69,0,0,1-.12,1l-3.31,2.64A.68.68,0,0,1,27,43.44Z"/></g></g></svg>