<svg xmlns="http://www.w3.org/2000/svg" viewBox="0 0 80 80"><defs><style>.cls-1{fill:none;}.cls-2{fill:#e9a0a7;}.cls-3{fill:#fdd5a9;}.cls-4{fill:#1e1e1e;}</style></defs><g id="Layer_2" data-name="Layer 2"><g id="Layer_1-2" data-name="Layer 1"><rect class="cls-1" width="80" height="80"/><path class="cls-2" d="M58.89,32.52a1.41,1.41,0,0,0-1.4,1.41V54.5h4.64c4.51,0,6.77-3.65,6.77-8.7V32.52Z"/><path class="cls-3" d="M64.53,9.5c-4,0-6.54,7-8.52,12.61L49,42.18c-.93,2.62-2.17,6.36-2.17,8.27,0,2.28,1.37,4,4.62,4h6.09V33.93a1.41,1.41,0,0,1,1.4-1.41h10v-15C68.9,12.79,67.92,9.5,64.53,9.5Z"/><path class="cls-4" d="M60,24.73a.63.63,0,0,1-.19,0,.7.7,0,0,1-.49-.86c.8-2.88,4.9-2.64,5.08-2.62a.71.71,0,0,1,.65.74.72.72,0,0,1-.74.66s-3.15-.19-3.64,1.59A.7.7,0,0,1,60,24.73Z"/><path class="cls-4" d="M60,24.73a.63.63,0,0,1-.19,0,.7.7,0,0,1-.49-.86c.49-1.78-2.27-3.22-2.3-3.24a.7.7,0,1,1,.64-1.24c.16.08,3.81,2,3,4.85A.7.7,0,0,1,60,24.73Z"/><path class="cls-4" d="M66.54,36.45a.7.7,0,0,1-.66-.47c-1-2.82,2.51-5,2.66-5.06a.7.7,0,1,1,.72,1.2s-2.68,1.65-2.06,3.39a.7.7,0,0,1-.43.9A.85.85,0,0,1,66.54,36.45Z"/><path class="cls-4" d="M66.54,36.45a.7.7,0,0,1-.66-.47c-.61-1.72-3.71-1.34-3.74-1.33A.7.7,0,1,1,62,33.26c.17,0,4.25-.56,5.25,2.25a.7.7,0,0,1-.43.9A.85.85,0,0,1,66.54,36.45Z"/><path class="cls-4" d="M9.77,25.9a1.76,1.76,0,0,1-1.14-.43,1.71,1.71,0,0,1-.46-2A25.87,25.87,0,0,1,31.84,8a25.6,25.6,0,0,1,18.84,8.16,1.68,1.68,0,0,1,.24,2,1.71,1.71,0,0,1-1.89.86,52.27,52.27,0,0,0-38.34,6.59A1.81,1.81,0,0,1,9.77,25.9ZM31.84,9.4A24.45,24.45,0,0,0,9.46,24a.3.3,0,0,0,.09.38.32.32,0,0,0,.41,0,53.7,53.7,0,0,1,39.36-6.76.36.36,0,0,0,.39-.17.33.33,0,0,0-.05-.4A24.22,24.22,0,0,0,31.84,9.4Z"/><path class="cls-4" d="M38.27,40.76a.7.7,0,0,1-.64-1l9.84-21.91a.71.71,0,0,1,.93-.35.7.7,0,0,1,.35.92L38.91,40.34A.7.7,0,0,1,38.27,40.76Z"/><path class="cls-4" d="M38.27,40.76h-.1a.7.7,0,0,1-.59-.8L41,17.21a.71.71,0,0,1,.8-.59.7.7,0,0,1,.59.8L39,40.16A.71.71,0,0,1,38.27,40.76Z"/><path class="cls-4" d="M38.27,40.76a.71.71,0,0,1-.69-.61l-2.93-22.8A.7.7,0,1,1,36,17.17L39,40a.7.7,0,0,1-.61.78Z"/><path class="cls-4" d="M28.41,42.65a.7.7,0,0,1-.5-.21L11.15,25.24a.7.7,0,0,1,0-1,.71.71,0,0,1,1,0l16.76,17.2a.7.7,0,0,1,0,1A.71.71,0,0,1,28.41,42.65Z"/><path class="cls-4" d="M28.41,42.65a.68.68,0,0,1-.61-.37l-11-20.19a.7.7,0,0,1,.28-.95.71.71,0,0,1,.95.28L29,41.61a.7.7,0,0,1-.28,1A.69.69,0,0,1,28.41,42.65Z"/><path class="cls-4" d="M28.41,42.65a.69.69,0,0,1-.68-.55L22.65,19.68A.7.7,0,0,1,24,19.37L29.09,41.8a.69.69,0,0,1-.52.83Z"/><path class="cls-4" d="M34.19,46.12a2.9,2.9,0,0,1-1.55-.48L28,42.53a.7.7,0,0,1-.19-1,.7.7,0,0,1,1-.19l4.63,3.11a1.92,1.92,0,0,0,.79.24,1.44,1.44,0,0,0,.68-.42l2.77-4.6a.7.7,0,0,1,1-.24.69.69,0,0,1,.24,1l-2.81,4.66a.61.61,0,0,1-.07.1,2.71,2.71,0,0,1-1.72.94Z"/><path class="cls-4" d="M8.79,72a.7.7,0,0,1-.7-.66c0-.21-.8-20.5,14.24-21.62,7.37-.55,13.1,3.61,19.73,8.42S56.31,68.47,67.47,70.55a.7.7,0,1,1-.25,1.37c-11.48-2.13-19.19-7.73-26-12.67-6.41-4.66-11.93-8.69-18.81-8.16-13.68,1-13,19.37-12.94,20.15a.7.7,0,0,1-.67.73Z"/><path class="cls-4" d="M71,71.94h-.13a.7.7,0,0,1-.56-.82c0-.08,1.35-7.92-2.13-12.24A8,8,0,0,0,62,56.05c-1.82-.07-4.68,1.15-7.49,2.32-4.48,1.87-9.12,3.81-11.73,2a.7.7,0,0,1,.79-1.16c2,1.37,6.46-.5,10.4-2.14,3.09-1.29,6-2.51,8.08-2.43A9.27,9.27,0,0,1,69.28,58c3.88,4.81,2.48,13,2.42,13.36A.71.71,0,0,1,71,71.94Z"/><path class="cls-4" d="M70.88,71.94h-62a.7.7,0,1,1,0-1.4H70.88a.7.7,0,0,1,0,1.4Z"/><path class="cls-4" d="M49.4,60.32a.72.72,0,0,1-.36-.11.7.7,0,0,1-.23-1,3.47,3.47,0,0,0,.36-.83A4.1,4.1,0,1,0,41.33,56a3.83,3.83,0,0,0-.16,1.5v.13a.74.74,0,0,1,0,.21.7.7,0,0,1-1.39-.09s0-.11,0-.17a5.38,5.38,0,0,1,.22-2,5.5,5.5,0,1,1,10.52,3.19A5.3,5.3,0,0,1,50,60,.69.69,0,0,1,49.4,60.32Z"/></g></g></svg>