<svg xmlns="http://www.w3.org/2000/svg" viewBox="0 0 80 80"><defs><style>.cls-1{fill:none;}.cls-2{fill:#e9a0a7;}.cls-3{fill:#fdd5a9;}.cls-4{fill:#1e1e1e;}</style></defs><g id="Layer_2" data-name="Layer 2"><g id="Layer_1-2" data-name="Layer 1"><rect class="cls-1" width="80" height="80"/><path id="Path_42582" data-name="Path 42582" class="cls-2" d="M49.66,44.32c0,4.42,1.87,7.77,5.59,8.54V43.21a2.54,2.54,0,0,0-1.23-2l-4.36-2.34Z"/><path id="Path_42583" data-name="Path 42583" class="cls-3" d="M55.25,43.21v9.65a8.62,8.62,0,0,0,1.68.16h1.15c5,0,8-3.29,10.13-8.74l3.62-9.39V8H69.31a3.58,3.58,0,0,0-3.7,3.44V24.68h-.88c-2.08-6.26-7.16-14-13.43-14H49.66V38.89L54,41.23a2.53,2.53,0,0,1,1.23,2"/><path class="cls-4" d="M8.89,53.85a.73.73,0,0,1-.25,0,.7.7,0,0,1-.41-.9L22.7,13.42A2.39,2.39,0,0,1,25,11.84h0a2.4,2.4,0,0,1,2.27,1.58l7.4,20.2a.7.7,0,1,1-1.31.48l-7.4-20.19a1,1,0,0,0-1-.67h0a1,1,0,0,0-1,.67L9.54,53.39A.68.68,0,0,1,8.89,53.85Z"/><path class="cls-4" d="M71.31,52.25a.71.71,0,0,1-.66-.46L57.33,15.42a.87.87,0,0,0-.83-.58h0a.86.86,0,0,0-.83.58L48.85,34a.7.7,0,1,1-1.31-.48l6.82-18.6a2.25,2.25,0,0,1,2.14-1.5h0a2.25,2.25,0,0,1,2.14,1.5L72,51.3a.7.7,0,0,1-.42.9A.69.69,0,0,1,71.31,52.25Z"/><path class="cls-4" d="M17.21,31.38a.7.7,0,0,1-.49-.2.69.69,0,0,1,0-1,5.89,5.89,0,0,1,1.77-1.27,4.29,4.29,0,0,0,1.41-1,4.63,4.63,0,0,0,1-1.41,6.47,6.47,0,0,1,3-3,4.46,4.46,0,0,0,1.41-1,4.29,4.29,0,0,0,1-1.41,6.22,6.22,0,0,1,1.27-1.78.7.7,0,0,1,1,1,4.46,4.46,0,0,0-1,1.41,5.89,5.89,0,0,1-1.26,1.78,6.22,6.22,0,0,1-1.78,1.27,4.29,4.29,0,0,0-1.41,1,4.63,4.63,0,0,0-1,1.41,5.71,5.71,0,0,1-1.26,1.78,5.89,5.89,0,0,1-1.78,1.26,4.44,4.44,0,0,0-1.4,1A.74.74,0,0,1,17.21,31.38Z"/><path class="cls-4" d="M64.61,34.09a.73.73,0,0,1-.49-.2A6,6,0,0,1,62.8,32a5.46,5.46,0,0,0-2.56-2.55,7,7,0,0,1-3.19-3.19A4.85,4.85,0,0,0,56,24.78a4.63,4.63,0,0,0-1.5-1.06,6.24,6.24,0,0,1-1.87-1.33.7.7,0,1,1,1-1,4.8,4.8,0,0,0,1.5,1.06A6.24,6.24,0,0,1,57,23.79a6,6,0,0,1,1.32,1.87,4.73,4.73,0,0,0,1.07,1.49,4.51,4.51,0,0,0,1.49,1.06,6.24,6.24,0,0,1,1.87,1.33,6.15,6.15,0,0,1,1.32,1.86,4.8,4.8,0,0,0,1.06,1.5.71.71,0,0,1,0,1A.74.74,0,0,1,64.61,34.09Z"/><path class="cls-4" d="M50.4,72H19.78a.7.7,0,0,1-.7-.7V50.52a.69.69,0,0,1,.46-.66l12.13-4.42a.7.7,0,0,1,.9.42.69.69,0,0,1-.42.89L20.48,51V70.6H50.4a.7.7,0,0,1,0,1.4Z"/><path class="cls-4" d="M62.44,72H50.3a.7.7,0,0,1,0-1.4H61.74V51L50.45,46.9A.71.71,0,0,1,50,46a.7.7,0,0,1,.9-.42l11.75,4.28a.71.71,0,0,1,.46.66V71.3A.71.71,0,0,1,62.44,72Z"/><path class="cls-4" d="M50.4,72a.7.7,0,0,1-.7-.7V35.82l-8.49-4.09-8.5,4.09V71.3a.7.7,0,0,1-1.4,0V35.38a.7.7,0,0,1,.4-.63l9.19-4.43a.72.72,0,0,1,.61,0l9.19,4.43a.68.68,0,0,1,.4.63V71.3A.7.7,0,0,1,50.4,72Z"/><path class="cls-4" d="M41.21,31.66a.7.7,0,0,1-.7-.7V20.81a.7.7,0,0,1,1.4,0V31A.71.71,0,0,1,41.21,31.66Z"/><path class="cls-4" d="M44.58,25.17H37.84a.71.71,0,0,1,0-1.41h6.74a.71.71,0,0,1,0,1.41Z"/><path class="cls-4" d="M41.22,44.7A3.94,3.94,0,0,1,37.33,40,3.92,3.92,0,0,1,39,37.43a3.86,3.86,0,0,1,3-.6A4,4,0,0,1,43.41,44,3.94,3.94,0,0,1,41.22,44.7Zm0-6.55a2.5,2.5,0,0,0-1.41.44,2.58,2.58,0,0,0,.93,4.66,2.51,2.51,0,0,0,1.9-.38,2.58,2.58,0,0,0-.93-4.67A2.63,2.63,0,0,0,41.2,38.15Z"/><path class="cls-4" d="M45.81,71.37a.71.71,0,0,1-.7-.7v-11a3.91,3.91,0,1,0-7.81,0v11a.7.7,0,1,1-1.4,0v-11a5.31,5.31,0,1,1,10.61,0v11A.7.7,0,0,1,45.81,71.37Z"/><path class="cls-4" d="M28,60.71H23.66A.7.7,0,0,1,23,60V55.85a2.89,2.89,0,1,1,5.77,0V60A.7.7,0,0,1,28,60.71Zm-3.67-1.4h3V55.85a1.49,1.49,0,1,0-3,0Z"/><path class="cls-4" d="M58.55,60.71H54.19a.7.7,0,0,1-.7-.7V55.85a2.88,2.88,0,1,1,5.76,0V60A.7.7,0,0,1,58.55,60.71Zm-3.66-1.4h3V55.85a1.48,1.48,0,1,0-3,0Z"/></g></g></svg>