<svg xmlns="http://www.w3.org/2000/svg" viewBox="0 0 80 80"><defs><style>.cls-1{fill:none;}.cls-2{fill:#e9a0a7;}.cls-3{fill:#fdd5a9;}.cls-4{fill:#1e1e1e;}.cls-5{fill:#fff;}</style></defs><g id="Layer_2" data-name="Layer 2"><g id="Layer_1-2" data-name="Layer 1"><rect class="cls-1" width="80" height="80"/><path class="cls-2" d="M32.65,30.33h-4.3a3.77,3.77,0,0,1-2.32-1l-8-8a3.77,3.77,0,0,1-1-2.32V11.53A3.6,3.6,0,0,1,20.56,8c3.13,0,5.13,3.47,7.71,10.46Z"/><path class="cls-3" d="M39.08,47.74a3.84,3.84,0,0,1,.24,1.39A3.92,3.92,0,0,1,35.41,53H22.64a5.53,5.53,0,0,1-5.53-5.53V11.71c0-.06,0-.12,0-.18v7.56a3.77,3.77,0,0,0,1,2.32l8,8a3.77,3.77,0,0,0,2.32,1h4.3Z"/><path class="cls-4" d="M25.67,53.22H12.2a.71.71,0,0,1,0-1.41H25.67a.71.71,0,0,1,0,1.41Z"/><path class="cls-4" d="M17.68,42.07a5.69,5.69,0,0,1-5-3.08,5.09,5.09,0,0,1-3-7.16,5.41,5.41,0,0,1,2.36-9,5.69,5.69,0,0,1,11.38,0,5.41,5.41,0,0,1,2.36,9,5.09,5.09,0,0,1-3,7.14A5.69,5.69,0,0,1,17.68,42.07Zm0-23.44a4.3,4.3,0,0,0-4.29,4.29c0,.13,0,.26,0,.4l.08.66-.66.11A4,4,0,0,0,11,31.15l.5.4-.37.54a3.58,3.58,0,0,0-.62,2,3.67,3.67,0,0,0,2.83,3.59l.33.08.14.32a4.29,4.29,0,0,0,7.85,0l.14-.32.33-.08a3.67,3.67,0,0,0,2.78-3.58,3.6,3.6,0,0,0-.62-2l-.36-.53.5-.4A4,4,0,0,0,25.86,28a4,4,0,0,0-3.35-3.94L21.86,24l.07-.66a2.68,2.68,0,0,0,0-.4A4.29,4.29,0,0,0,17.66,18.63Z"/><path class="cls-4" d="M17.66,53.22a.71.71,0,0,1-.7-.71V28.14a.7.7,0,1,1,1.4,0V52.51A.7.7,0,0,1,17.66,53.22Z"/><path class="cls-4" d="M17.66,34.81a.72.72,0,0,1-.55-.26l-2.26-2.88a.69.69,0,0,1,.12-1,.7.7,0,0,1,1,.11l2.26,2.88a.7.7,0,0,1-.11,1A.71.71,0,0,1,17.66,34.81Z"/><path class="cls-4" d="M51.86,20h-.12a.71.71,0,0,1-.57-.81c.24-1.3-1.91-2.19-1.93-2.2a.71.71,0,0,1-.4-.91.7.7,0,0,1,.91-.39c.13.05,3.24,1.31,2.8,3.74A.7.7,0,0,1,51.86,20Z"/><path class="cls-4" d="M51.86,20h-.12a.71.71,0,0,1-.57-.81c.44-2.43,3.78-2.54,3.93-2.55a.71.71,0,0,1,.71.68.7.7,0,0,1-.68.72s-2.35.11-2.58,1.39A.7.7,0,0,1,51.86,20Z"/><path class="cls-4" d="M64.66,13a.71.71,0,0,1-.67-.5c-.4-1.3-2.82-1.12-2.84-1.11A.7.7,0,0,1,61,10c.14,0,3.57-.31,4.31,2.1a.71.71,0,0,1-.47.88Z"/><path class="cls-4" d="M64.66,13a.71.71,0,0,1-.67-.5c-.74-2.41,2.26-4.08,2.39-4.15a.7.7,0,0,1,.67,1.23s-2.12,1.21-1.72,2.51a.71.71,0,0,1-.47.88Z"/><path class="cls-4" d="M71.13,72H8.76a.7.7,0,1,1,0-1.4H71.13a.7.7,0,0,1,0,1.4Z"/><path class="cls-4" d="M64.15,45.05a.7.7,0,0,1-.69-.58L61.54,33.09c-.12-.62-.5-1.08-.92-1.08H34.42c-.41,0-.8.46-.92,1.09L31.58,44.47a.7.7,0,0,1-.81.57.69.69,0,0,1-.57-.8l1.92-11.38a2.51,2.51,0,0,1,2.3-2.25h26.2a2.51,2.51,0,0,1,2.3,2.23l1.92,11.4a.69.69,0,0,1-.57.8Z"/><path class="cls-4" d="M63.56,58.44H31.48a.7.7,0,0,1-.69-.64l-1-11.87a3.81,3.81,0,0,1,3.8-3.87H61.45a3.82,3.82,0,0,1,3.81,3.81l-1,11.93A.7.7,0,0,1,63.56,58.44ZM32.13,57H62.91l1-11.23a2.4,2.4,0,0,0-2.41-2.35H33.59a2.41,2.41,0,0,0-2.41,2.41Z"/><path class="cls-4" d="M69.34,63.72H25.74c-.94,0-1.6-.6-2-1.78l-.65-2.74a1,1,0,0,1,0-.16,2,2,0,0,1,2-2H69.94a2,2,0,0,1,2,2,.77.77,0,0,1,0,.15l-.6,2.69A1.89,1.89,0,0,1,69.34,63.72ZM24.51,59l.61,2.6c.24.75.47.75.62.75h43.6c.28,0,.51,0,.6-.69l.6-2.66a.61.61,0,0,0-.6-.53H25.1A.59.59,0,0,0,24.51,59Z"/><path class="cls-4" d="M31.47,58.44H26.58a.7.7,0,0,1-.7-.7V51.67a2.45,2.45,0,0,1,2.43-2.46l2.52-.08a.67.67,0,0,1,.72.64l.62,7.92a.69.69,0,0,1-.7.75ZM27.28,57h3.44l-.52-6.49-1.87.05a1.07,1.07,0,0,0-1,1.07Z"/><path class="cls-4" d="M68.46,58.43H63.55a.7.7,0,0,1-.51-.22.71.71,0,0,1-.18-.54l.65-7.83a.69.69,0,0,1,.7-.64h2.43a2.49,2.49,0,0,1,2.52,2.46v6.07A.7.7,0,0,1,68.46,58.43ZM64.31,57h3.45V51.66a1.09,1.09,0,0,0-1.12-1.06H64.85Z"/><path class="cls-4" d="M31.9,72H29.29a3.41,3.41,0,0,1-3.41-3.41V63a.71.71,0,0,1,.7-.7h8a.7.7,0,0,1,.7.7v5.57A3.41,3.41,0,0,1,31.9,72Zm-4.62-8.28v4.87a2,2,0,0,0,2,2H31.9a2,2,0,0,0,2-2V63.72Z"/><path class="cls-4" d="M65.75,72H63.14a3.41,3.41,0,0,1-3.41-3.41V63a.7.7,0,0,1,.7-.7h8a.71.71,0,0,1,.7.7v5.57A3.41,3.41,0,0,1,65.75,72Zm-4.62-8.28v4.87a2,2,0,0,0,2,2h2.61a2,2,0,0,0,2-2V63.72Z"/><rect class="cls-5" x="36.54" y="57" width="21.97" height="6.76" rx="1.56"/><path class="cls-4" d="M56.94,64.46H38.1a2.26,2.26,0,0,1-2.26-2.26V58.57A2.27,2.27,0,0,1,38.1,56.3H56.94a2.27,2.27,0,0,1,2.26,2.27V62.2A2.26,2.26,0,0,1,56.94,64.46ZM38.1,57.7a.87.87,0,0,0-.86.87V62.2a.87.87,0,0,0,.86.86H56.94a.86.86,0,0,0,.86-.86V58.57a.86.86,0,0,0-.86-.87Z"/><path class="cls-4" d="M44.43,53.74a.7.7,0,0,1-.7-.7V47.46a.7.7,0,0,1,1.4,0V53A.7.7,0,0,1,44.43,53.74Z"/><path class="cls-4" d="M50.06,53.74a.7.7,0,0,1-.7-.7V47.46a.7.7,0,0,1,1.4,0V53A.7.7,0,0,1,50.06,53.74Z"/><path class="cls-4" d="M37.26,53.6a3.35,3.35,0,1,1,3.34-3.35A3.35,3.35,0,0,1,37.26,53.6Zm0-5.29a1.95,1.95,0,1,0,1.94,1.94A2,2,0,0,0,37.26,48.31Z"/><path class="cls-4" d="M57.51,53.6a3.35,3.35,0,1,1,3.35-3.35A3.35,3.35,0,0,1,57.51,53.6Zm0-5.29a1.95,1.95,0,1,0,2,1.94A1.94,1.94,0,0,0,57.51,48.31Z"/></g></g></svg>