<?xml version="1.0" standalone="no"?>
<!DOCTYPE svg PUBLIC "-//W3C//DTD SVG 20010904//EN"
 "http://www.w3.org/TR/2001/REC-SVG-20010904/DTD/svg10.dtd">
<svg version="1.0" xmlns="http://www.w3.org/2000/svg"
 width="1593.000000pt" height="1594.000000pt" viewBox="0 0 1593.000000 1594.000000"
 preserveAspectRatio="xMidYMid meet">

<g transform="translate(0.000000,1594.000000) scale(0.100000,-0.100000)"
fill="#ff0000" stroke="none">
<path d="M3420 15923 c-679 -49 -1267 -243 -1795 -592 -818 -541 -1396 -1431
-1560 -2406 -53 -314 -50 -45 -50 -4970 0 -4321 1 -4598 18 -4735 99 -817 438
-1537 992 -2109 582 -600 1304 -961 2155 -1078 116 -16 442 -17 4695 -21 3229
-2 4608 0 4700 8 720 60 1365 302 1920 721 123 92 188 149 334 292 602 590
956 1308 1068 2162 17 134 18 346 18 4760 0 4413 -1 4626 -18 4760 -61 463
-160 803 -347 1192 -307 635 -733 1111 -1331 1486 -371 232 -833 409 -1259
482 -306 53 66 49 -4905 50 -2524 1 -4610 0 -4635 -2z m-57 -4554 c114 -29
183 -65 247 -130 154 -156 206 -441 159 -879 -14 -132 -31 -228 -189 -1106
-117 -646 -140 -786 -140 -867 0 -109 5 -117 63 -98 46 15 116 92 235 256 56
77 181 248 278 380 97 132 263 357 368 500 104 143 280 382 390 530 110 149
253 344 319 435 458 629 512 691 662 766 170 84 341 81 528 -11 91 -45 148
-100 184 -179 26 -56 28 -71 28 -181 0 -112 -2 -127 -38 -235 -343 -1035 -812
-2594 -842 -2802 -14 -93 15 -149 66 -133 14 5 144 192 357 514 519 781 789
1174 1076 1564 432 586 661 853 821 953 113 70 176 87 322 86 201 0 285 -31
395 -144 154 -158 184 -344 105 -643 -137 -516 -172 -655 -217 -845 -154 -651
-270 -1275 -366 -1975 -35 -252 -37 -323 -8 -362 35 -47 90 -44 149 8 96 85
800 1111 1185 1729 382 614 384 618 1101 2075 86 176 181 356 209 400 119 181
257 317 385 377 199 92 517 2 633 -179 49 -77 65 -150 60 -267 -6 -134 -40
-230 -175 -500 -399 -799 -696 -1610 -891 -2436 -65 -273 -82 -393 -82 -568 0
-288 65 -455 205 -527 53 -27 67 -30 154 -30 167 1 267 52 441 225 88 87 137
147 202 245 47 72 99 155 114 185 29 59 121 222 999 1785 312 556 644 1147
738 1315 138 245 182 316 227 361 178 179 448 243 672 159 166 -62 233 -228
180 -451 -27 -111 -50 -162 -159 -349 -114 -196 -312 -554 -481 -870 -488
-915 -1432 -2806 -1595 -3195 -328 -784 -572 -1515 -766 -2295 -145 -579 -168
-750 -158 -1149 8 -329 43 -571 129 -901 36 -139 41 -283 13 -365 -50 -145
-163 -222 -361 -247 -123 -15 -289 2 -384 39 -373 148 -600 622 -575 1203 24
596 159 1220 416 1936 80 224 225 589 373 939 57 137 104 251 102 252 -2 2
-19 -3 -38 -11 -60 -26 -230 -65 -328 -77 -665 -79 -1128 478 -1097 1321 6
155 30 324 66 468 11 42 19 78 17 79 -1 2 -299 -396 -662 -884 -362 -488 -690
-921 -729 -961 -86 -91 -168 -150 -277 -201 -138 -65 -230 -85 -398 -85 -142
-1 -146 0 -210 30 -190 91 -301 230 -352 444 -34 145 -26 431 38 1205 42 522
90 936 135 1181 16 86 18 117 10 133 -18 33 -37 16 -98 -88 -94 -161 -269
-437 -391 -616 -221 -325 -337 -484 -998 -1360 -91 -121 -191 -262 -221 -315
-104 -178 -221 -322 -362 -446 -111 -98 -180 -128 -330 -146 -81 -9 -109 -8
-174 5 -108 22 -161 50 -232 121 -107 108 -153 228 -141 371 4 44 82 586 174
1205 92 619 166 1133 164 1143 -2 11 -13 17 -31 17 -21 0 -42 -15 -87 -62
-271 -285 -1020 -1366 -1354 -1953 -31 -55 -133 -220 -226 -365 -199 -311
-269 -392 -394 -452 -133 -65 -291 -62 -436 7 -89 43 -177 133 -227 234 -80
160 -77 258 22 666 38 160 119 497 180 750 163 681 639 2677 663 2777 24 100
19 135 -18 144 -79 20 -172 -58 -273 -232 -35 -60 -91 -156 -125 -214 -82
-141 -196 -258 -281 -290 -50 -18 -75 -21 -151 -18 -81 3 -99 8 -176 45 -132
63 -196 140 -223 269 -39 185 2 339 193 720 198 395 447 734 659 897 87 66
296 179 395 212 174 58 325 69 461 34z"/>
</g>
</svg>
