<?xml version="1.0" encoding="UTF-8"?>
<!DOCTYPE svg PUBLIC "-//W3C//DTD SVG 1.1//EN" "http://www.w3.org/Graphics/SVG/1.1/DTD/svg11.dtd">
<!-- Creator: CorelDRAW X6 -->
<svg xmlns="http://www.w3.org/2000/svg" xml:space="preserve" width="297mm" height="210mm" version="1.1" style="shape-rendering:geometricPrecision; text-rendering:geometricPrecision; image-rendering:optimizeQuality; fill-rule:evenodd; clip-rule:evenodd"
viewBox="0 0 29700 21000"
 xmlns:xlink="http://www.w3.org/1999/xlink">
 <defs>
  <style type="text/css">
   <![CDATA[
    .str0 {stroke:#292243;stroke-width:52.56}
    .fil22 {fill:none}
    .fil18 {fill:none;fill-rule:nonzero}
    .fil0 {fill:#C5C6C6}
    .fil1 {fill:#EBECEC}
    .fil23 {fill:#8C1F5A;fill-rule:nonzero}
    .fil12 {fill:url(#id0)}
    .fil9 {fill:url(#id1)}
    .fil13 {fill:url(#id2)}
    .fil10 {fill:url(#id3)}
    .fil14 {fill:url(#id4)}
    .fil11 {fill:url(#id5)}
    .fil15 {fill:url(#id6)}
    .fil8 {fill:url(#id7)}
    .fil20 {fill:url(#id8)}
    .fil21 {fill:url(#id9)}
    .fil4 {fill:url(#id10)}
    .fil6 {fill:url(#id11)}
    .fil5 {fill:url(#id12)}
    .fil3 {fill:url(#id13)}
    .fil7 {fill:url(#id14)}
    .fil2 {fill:url(#id15)}
    .fil17 {fill:url(#id16)}
    .fil16 {fill:url(#id17)}
    .fil19 {fill:url(#id18);fill-rule:nonzero}
   ]]>
  </style>
  <radialGradient id="id0" gradientUnits="userSpaceOnUse" cx="17306.5" cy="10728.4" r="1135.45" fx="17306.5" fy="10728.4">
   <stop offset="0" style="stop-color:#FEFEFE"/>
   <stop offset="1" style="stop-color:#9B9B9B"/>
  </radialGradient>
  <radialGradient id="id1" gradientUnits="userSpaceOnUse" xlink:href="#id0" cx="12244.4" cy="12170.6" r="1536.33" fx="12244.4" fy="12170.6">
  </radialGradient>
  <radialGradient id="id2" gradientUnits="userSpaceOnUse" xlink:href="#id0" cx="12274.3" cy="10724.4" r="1148.02" fx="12274.3" fy="10724.4">
  </radialGradient>
  <radialGradient id="id3" gradientUnits="userSpaceOnUse" xlink:href="#id0" cx="13034" cy="13621.5" r="1485.25" fx="13034" fy="13621.5">
  </radialGradient>
  <radialGradient id="id4" gradientUnits="userSpaceOnUse" xlink:href="#id0" cx="13059.6" cy="9491.94" r="915.85" fx="13059.6" fy="9491.94">
  </radialGradient>
  <radialGradient id="id5" gradientUnits="userSpaceOnUse" xlink:href="#id0" cx="16551.2" cy="13621.1" r="1480.84" fx="16551.2" fy="13621.1">
  </radialGradient>
  <radialGradient id="id6" gradientUnits="userSpaceOnUse" xlink:href="#id0" cx="16556.2" cy="9482.85" r="892.83" fx="16556.2" fy="9482.85">
  </radialGradient>
  <radialGradient id="id7" gradientUnits="userSpaceOnUse" xlink:href="#id0" cx="17338.6" cy="12176.8" r="1536.65" fx="17338.6" fy="12176.8">
  </radialGradient>
  <radialGradient id="id8" gradientUnits="userSpaceOnUse" cx="16655" cy="15847.1" r="44.01" fx="16655" fy="15847.1">
   <stop offset="0" style="stop-color:#AF1C6A"/>
   <stop offset="1" style="stop-color:#292243"/>
  </radialGradient>
  <radialGradient id="id9" gradientUnits="userSpaceOnUse" xlink:href="#id8" cx="16755.2" cy="15847.1" r="44.01" fx="16755.2" fy="15847.1">
  </radialGradient>
  <radialGradient id="id10" gradientUnits="userSpaceOnUse" xlink:href="#id8" cx="17919.2" cy="10432.8" r="1356.61" fx="17919.2" fy="10432.8">
  </radialGradient>
  <radialGradient id="id11" gradientUnits="userSpaceOnUse" xlink:href="#id8" cx="12377.4" cy="9223.37" r="1221.56" fx="12377.4" fy="9223.37">
  </radialGradient>
  <radialGradient id="id12" gradientUnits="userSpaceOnUse" xlink:href="#id8" cx="11673.1" cy="10466.5" r="1325.59" fx="11673.1" fy="10466.5">
  </radialGradient>
  <radialGradient id="id13" gradientUnits="userSpaceOnUse" xlink:href="#id8" cx="11369.7" cy="12350.7" r="1860.11" fx="11369.7" fy="12350.7">
  </radialGradient>
  <radialGradient id="id14" gradientUnits="userSpaceOnUse" xlink:href="#id8" cx="17243.1" cy="9162.96" r="1212.55" fx="17243.1" fy="9162.96">
  </radialGradient>
  <radialGradient id="id15" gradientUnits="userSpaceOnUse" xlink:href="#id8" cx="18025.2" cy="12472.8" r="1857.01" fx="18025.2" fy="12472.8">
  </radialGradient>
  <radialGradient id="id16" gradientUnits="userSpaceOnUse" xlink:href="#id8" cx="14650" cy="10381.3" r="2713.86" fx="14650" fy="10381.3">
  </radialGradient>
  <radialGradient id="id17" gradientUnits="userSpaceOnUse" xlink:href="#id8" cx="14976.9" cy="10203.5" r="1870.52" fx="14976.9" fy="10203.5">
  </radialGradient>
  <radialGradient id="id18" gradientUnits="userSpaceOnUse" xlink:href="#id8" cx="14115.3" cy="15702.2" r="2414.12" fx="14115.3" fy="15702.2">
  </radialGradient>
 </defs>
 <g id="Layer_x0020_1">
  <metadata id="CorelCorpID_0Corel-Layer"/>
  <g id="_368881608">
   <path class="fil0" d="M17611 11361c417,54 743,93 1129,242l330 133c-29,175 -284,438 -391,525 -173,140 -341,243 -566,343 -433,194 -894,298 -1417,387 143,58 770,2 950,-27 736,-122 1584,-523 1756,-1320 -113,-111 -588,-251 -794,-286 -230,-40 -518,-59 -760,-40l-198 27c-42,14 -22,7 -37,16z"/>
   <path class="fil0" d="M10281 11645c27,232 250,541 365,662 155,163 365,307 602,418 437,205 1313,379 1743,267 -509,-65 -1007,-212 -1416,-386 -218,-93 -404,-210 -571,-339 -140,-108 -217,-222 -314,-355 -64,-88 -69,-108 -76,-176l318 -132c350,-128 736,-210 1118,-236 -35,-27 30,-2 -50,-29l-172 -20c-82,-6 -184,-8 -266,-6 -370,7 -949,109 -1251,310 -19,13 -17,11 -30,23z"/>
   <path class="fil0" d="M17056 10016c60,-25 199,-138 452,-248 132,-57 413,-145 574,-149 50,357 115,584 -81,996 -228,479 -388,600 -443,708 240,-101 571,-486 700,-753 83,-171 139,-379 132,-597 -8,-250 -80,-383 -145,-582 -330,-44 -1120,359 -1190,626z"/>
   <path class="fil0" d="M12125 11316c-95,-54 -381,-545 -451,-708 -111,-259 -202,-771 -64,-988 161,0 434,95 568,149 108,44 400,194 444,257 1,-127 -343,-363 -474,-433 -174,-94 -472,-205 -712,-208 -244,604 -178,1154 287,1620 55,56 318,303 401,311z"/>
   <path class="fil0" d="M12659 10006c-15,-108 -66,-229 -90,-342 -90,-421 -60,-862 217,-1188 230,26 619,453 748,639 -22,-284 -321,-578 -527,-731 -91,-67 -177,-101 -266,-157 -724,588 -331,1598 -82,1779z"/>
   <path class="fil0" d="M16150 9106c111,-120 95,-162 317,-362 68,-62 310,-244 416,-268 139,107 266,451 271,683 4,177 -1,282 -33,445 -29,146 -70,253 -101,388 142,-67 716,-1041 -74,-1766 -207,93 -356,207 -493,345 -107,108 -283,320 -304,535z"/>
   <path class="fil0" d="M17698 11980c-65,159 -832,574 -1004,679 371,18 1296,-360 1388,-727 -237,-85 -475,-254 -796,-251 45,41 140,100 201,141 79,54 143,97 211,158z"/>
   <path class="fil0" d="M11600 11938c42,187 388,408 560,494 161,80 622,242 828,225 -166,-89 -365,-203 -524,-304 -139,-88 -304,-196 -429,-304 -44,-38 -32,-12 -51,-70 42,-52 146,-116 203,-156 58,-42 153,-110 211,-140 -213,-16 -651,161 -798,254z"/>
   <path class="fil0" d="M12413 13652c300,332 897,311 1341,267 -274,-107 -626,-110 -1010,-314 43,-114 218,-255 284,-346 -165,24 -491,255 -616,394z"/>
   <path class="fil0" d="M16936 13609c-417,204 -841,238 -1004,304 341,47 624,68 974,-48 69,-23 137,-52 200,-86 41,-22 137,-87 164,-127 -71,-80 -458,-384 -617,-391 43,32 94,104 145,158 45,48 116,119 139,190z"/>
   <path class="fil0" d="M17051 10378l393 17c-75,472 -217,614 -272,846 230,-152 528,-637 471,-1025 -156,2 -512,78 -593,162z"/>
   <path class="fil0" d="M12029 10339c0,199 82,393 164,533 58,98 248,337 319,372 -91,-262 -247,-531 -271,-846l388 -20c-59,-75 -384,-140 -502,-156 -108,-14 -98,8 -98,118z"/>
   <path class="fil0" d="M12878 9383c0,148 68,436 147,523 17,-227 -23,-408 28,-643 74,-10 225,40 288,65 -25,-75 -274,-231 -390,-249 -34,95 -73,170 -73,304z"/>
   <path class="fil0" d="M16340 9323c103,-22 188,-66 289,-68 51,420 23,244 23,631 122,-91 219,-546 72,-806 -126,22 -348,169 -384,243z"/>
   <path class="fil0" d="M14648 10011c-37,76 -973,710 -931,1852 19,531 260,1143 574,1520 58,70 110,123 163,187 157,188 367,348 572,480 819,529 1897,525 2719,-15 236,-155 168,-139 290,-235 -220,-206 -191,-226 -498,-429 -137,-91 -442,-262 -627,-303 37,42 76,49 133,79l367 238c91,64 385,298 415,411 -94,50 -197,115 -299,161 -596,270 -1204,347 -1838,100 -574,-223 -1137,-670 -1405,-1227 -337,-700 -419,-1253 -16,-1986 71,-130 181,-271 268,-370 61,-69 234,-244 323,-295l456 -407c72,-70 154,-188 205,-273 283,-479 225,-1008 -63,-1474 -39,-63 -127,-184 -215,-293 -81,-100 -161,-190 -202,-212 42,45 99,125 156,212 78,120 156,254 194,329 497,987 -44,1452 -741,1948z"/>
   <path class="fil0" d="M14637 10016l211 170c176,94 498,506 593,671 381,657 323,1353 -27,1994 -76,139 -167,270 -258,380 -53,64 -93,105 -148,171 -221,266 -676,545 -995,664 -490,182 -1052,189 -1533,25 -296,-101 -403,-192 -604,-289 41,-121 317,-337 434,-422 264,-193 317,-188 521,-316 -177,28 -522,220 -647,302 -245,160 -323,260 -508,430 69,135 472,359 642,439 537,252 1270,255 1817,78 447,-144 827,-405 1126,-754 696,-812 997,-1788 440,-2787 -132,-237 -288,-406 -467,-584 -273,-273 -618,-411 -864,-745 -322,-438 -280,-909 -52,-1383 56,-117 129,-230 193,-322 76,-109 140,-188 151,-212 -38,54 -132,140 -198,212 -9,10 -17,19 -25,28 -225,260 -412,623 -436,994 -27,415 151,766 396,1037 72,79 170,152 240,218z"/>
  </g>
  <g id="_369703168">
   <path class="fil1" d="M17549 11386c417,54 743,93 1129,242l330 133c-29,175 -284,438 -391,525 -173,140 -341,243 -566,343 -433,194 -894,298 -1417,387 143,58 770,2 950,-27 736,-122 1585,-523 1756,-1320 -113,-111 -588,-251 -794,-286 -230,-40 -518,-59 -760,-40l-198 27c-42,14 -22,7 -37,16z"/>
   <path class="fil1" d="M10219 11670c27,232 250,541 365,662 155,163 365,307 602,418 437,205 1313,379 1743,267 -509,-65 -1007,-212 -1416,-386 -218,-93 -404,-210 -571,-339 -140,-108 -217,-222 -314,-355 -64,-88 -69,-108 -76,-176l318 -132c350,-128 736,-210 1118,-236 -35,-27 30,-2 -50,-29l-172 -20c-82,-6 -184,-8 -266,-6 -370,7 -949,109 -1251,310 -19,13 -17,11 -30,23z"/>
   <path class="fil1" d="M16994 10041c60,-25 199,-138 452,-248 132,-57 413,-145 574,-149 50,357 115,584 -81,996 -228,479 -388,600 -443,708 240,-101 571,-486 700,-753 83,-171 139,-379 132,-597 -8,-250 -80,-383 -145,-582 -330,-44 -1120,359 -1190,626z"/>
   <path class="fil1" d="M12063 11341c-95,-54 -381,-545 -451,-708 -111,-259 -202,-771 -65,-988 161,0 434,95 568,149 108,44 400,194 444,257 1,-127 -343,-363 -474,-433 -174,-94 -472,-205 -712,-208 -244,604 -178,1154 287,1620 55,56 318,303 401,311z"/>
   <path class="fil1" d="M12597 10031c-15,-108 -66,-229 -90,-342 -90,-421 -60,-862 217,-1188 230,26 619,453 748,639 -22,-284 -321,-578 -527,-731 -91,-67 -177,-101 -266,-157 -724,588 -331,1598 -82,1779z"/>
   <path class="fil1" d="M16088 9131c111,-120 95,-162 317,-362 68,-62 310,-244 416,-268 139,107 266,451 271,683 4,177 -1,282 -33,445 -29,146 -70,253 -101,388 142,-67 716,-1041 -74,-1766 -207,93 -356,207 -493,345 -107,108 -283,320 -304,535z"/>
   <path class="fil1" d="M17636 12004c-65,159 -832,574 -1004,679 371,18 1296,-360 1388,-727 -237,-85 -475,-254 -796,-251 45,41 140,100 201,141 79,54 143,97 211,158z"/>
   <path class="fil1" d="M11538 11963c42,187 388,408 560,494 161,80 622,242 828,225 -166,-89 -365,-203 -524,-304 -139,-88 -304,-196 -429,-304 -44,-38 -32,-12 -51,-70 42,-52 146,-116 203,-156 58,-42 153,-110 211,-140 -213,-16 -651,161 -798,254z"/>
   <path class="fil1" d="M12351 13677c300,332 897,311 1341,267 -274,-107 -626,-110 -1010,-314 43,-114 218,-255 284,-346 -165,24 -491,255 -616,394z"/>
   <path class="fil1" d="M16874 13634c-417,204 -841,238 -1004,304 341,47 624,68 974,-48 69,-23 137,-52 200,-86 41,-22 138,-87 164,-127 -71,-80 -458,-384 -617,-391 43,32 94,104 145,158 45,48 116,119 139,190z"/>
   <path class="fil1" d="M16989 10403l393 17c-75,472 -217,614 -272,846 230,-152 528,-637 471,-1025 -156,2 -512,78 -593,162z"/>
   <path class="fil1" d="M11967 10363c0,199 82,393 164,533 58,98 248,337 319,372 -91,-262 -247,-531 -271,-846l388 -20c-59,-75 -384,-140 -502,-156 -108,-14 -98,8 -98,118z"/>
   <path class="fil1" d="M12816 9408c0,148 68,436 147,523 17,-227 -23,-408 28,-643 74,-10 225,40 288,65 -25,-75 -274,-231 -390,-249 -34,95 -73,170 -73,304z"/>
   <path class="fil1" d="M16278 9347c103,-22 188,-66 289,-68 51,420 23,244 23,631 122,-91 219,-546 72,-806 -126,22 -348,169 -384,243z"/>
   <path class="fil1" d="M14586 10036c-37,76 -973,710 -931,1852 19,531 260,1143 574,1520 58,70 110,123 163,187 157,188 367,348 572,480 819,529 1897,525 2719,-15 236,-155 168,-139 290,-235 -220,-206 -191,-226 -498,-429 -137,-91 -442,-262 -627,-303 37,42 76,49 133,79l367 238c91,64 385,298 415,411 -94,50 -197,115 -299,161 -596,270 -1204,347 -1838,100 -574,-223 -1137,-670 -1405,-1227 -337,-700 -419,-1253 -16,-1986 71,-130 181,-271 268,-370 61,-69 234,-244 323,-295l456 -407c72,-70 154,-188 205,-273 283,-479 225,-1008 -63,-1474 -39,-63 -127,-184 -215,-293 -81,-100 -161,-190 -202,-212 42,45 99,125 156,212 78,120 156,254 194,329 497,987 -44,1452 -741,1948z"/>
   <path class="fil1" d="M14575 10041l211 170c176,94 498,506 593,671 381,657 323,1353 -27,1994 -76,139 -167,270 -258,380 -53,64 -93,105 -148,171 -221,266 -676,545 -995,664 -490,182 -1052,189 -1533,25 -296,-101 -403,-192 -604,-289 41,-121 317,-337 434,-422 264,-193 317,-188 521,-316 -177,28 -522,220 -647,302 -245,160 -323,260 -508,430 69,135 472,359 643,439 537,252 1270,255 1817,78 447,-144 827,-405 1126,-754 696,-812 997,-1788 440,-2787 -132,-237 -288,-406 -467,-584 -273,-273 -618,-411 -864,-745 -322,-438 -280,-909 -52,-1383 56,-117 129,-230 193,-322 76,-109 140,-188 151,-212 -38,54 -132,140 -198,212 -9,10 -17,19 -25,28 -225,260 -412,623 -436,994 -27,415 151,766 396,1037 72,79 170,152 240,218z"/>
  </g>
  <path class="fil2" d="M17562 11361c417,54 743,93 1129,242l330 133c-29,175 -284,438 -391,525 -173,140 -341,243 -566,343 -433,194 -894,298 -1417,387 143,58 770,2 950,-27 736,-122 1584,-523 1756,-1320 -113,-111 -588,-251 -794,-286 -230,-40 -518,-59 -760,-40l-198 27c-42,14 -22,7 -37,16z"/>
  <path class="fil3" d="M10232 11645c27,232 250,541 365,662 155,163 365,307 602,418 437,205 1313,379 1743,267 -509,-65 -1007,-212 -1416,-386 -218,-93 -404,-210 -571,-339 -140,-108 -217,-222 -314,-355 -64,-88 -69,-108 -76,-176l318 -132c350,-128 736,-210 1118,-236 -35,-27 30,-2 -50,-29l-172 -20c-82,-6 -184,-8 -266,-6 -370,7 -949,109 -1251,310 -19,13 -17,11 -30,23z"/>
  <path class="fil4" d="M17007 10016c60,-25 199,-138 452,-248 132,-57 413,-145 574,-149 50,357 115,584 -81,996 -228,479 -388,600 -443,708 240,-101 571,-486 700,-753 83,-171 139,-379 132,-597 -8,-250 -80,-383 -145,-582 -330,-44 -1120,359 -1190,626z"/>
  <path class="fil5" d="M12076 11316c-95,-54 -381,-545 -451,-708 -111,-259 -202,-771 -65,-988 161,0 434,95 568,149 108,44 400,194 444,257 1,-127 -343,-363 -474,-433 -174,-94 -472,-205 -712,-208 -244,604 -178,1154 287,1620 55,56 318,303 401,311z"/>
  <path class="fil6" d="M12610 10006c-15,-108 -66,-229 -90,-342 -90,-421 -60,-862 217,-1188 230,26 619,453 748,639 -22,-284 -321,-578 -527,-731 -91,-67 -177,-101 -266,-157 -724,588 -331,1598 -82,1779z"/>
  <path class="fil7" d="M16101 9106c111,-120 95,-162 317,-362 68,-62 310,-244 416,-268 139,107 266,451 271,683 4,177 -1,282 -33,445 -29,146 -70,253 -101,388 142,-67 716,-1041 -74,-1766 -207,93 -356,207 -493,345 -108,108 -283,320 -304,535z"/>
  <path class="fil8" d="M17649 11980c-65,159 -832,574 -1004,679 371,18 1296,-360 1388,-727 -237,-85 -475,-254 -796,-251 45,41 140,100 201,141 79,54 143,97 211,158z"/>
  <path class="fil9" d="M11551 11938c42,187 388,408 560,494 161,80 622,242 828,225 -166,-89 -365,-203 -524,-304 -139,-88 -304,-196 -429,-304 -44,-38 -32,-12 -51,-70 42,-52 146,-116 203,-156 58,-42 153,-110 211,-140 -213,-16 -651,161 -798,254z"/>
  <path class="fil10" d="M12363 13652c300,332 897,311 1341,267 -274,-107 -626,-110 -1010,-314 43,-114 218,-255 284,-346 -165,24 -491,255 -616,394z"/>
  <path class="fil11" d="M16886 13609c-417,204 -841,238 -1004,304 341,47 624,68 974,-48 69,-23 137,-52 200,-86 41,-22 138,-87 164,-127 -71,-80 -458,-384 -617,-391 43,32 94,104 145,158 45,48 116,119 139,190z"/>
  <path class="fil12" d="M17001 10378l393 17c-75,472 -217,614 -272,846 230,-152 528,-637 471,-1025 -156,2 -512,78 -593,162z"/>
  <path class="fil13" d="M11979 10339c0,199 82,393 164,533 58,98 248,337 319,372 -91,-262 -247,-531 -271,-846l388 -20c-59,-75 -384,-140 -502,-156 -108,-14 -98,8 -98,118z"/>
  <path class="fil14" d="M12828 9383c0,148 68,436 147,523 17,-227 -23,-408 28,-643 74,-10 225,40 288,65 -25,-75 -274,-231 -390,-249 -34,95 -73,170 -73,304z"/>
  <path class="fil15" d="M16291 9323c103,-22 188,-66 289,-68 51,420 23,244 23,631 122,-91 219,-546 72,-806 -126,22 -348,169 -384,243z"/>
  <path class="fil16" d="M14598 10011c-37,76 -973,710 -931,1852 19,531 260,1143 574,1520 58,70 110,123 163,187 157,188 367,348 572,480 819,529 1897,525 2719,-15 236,-155 168,-139 290,-235 -220,-206 -191,-226 -498,-429 -137,-91 -442,-262 -627,-303 37,42 76,49 133,79l367 238c91,64 385,298 415,411 -94,50 -197,115 -299,161 -596,270 -1204,347 -1838,100 -574,-223 -1137,-670 -1405,-1227 -337,-700 -419,-1253 -16,-1986 71,-130 181,-271 268,-370 61,-69 234,-244 323,-295l456 -407c72,-70 154,-188 205,-273 283,-479 225,-1008 -63,-1474 -39,-63 -127,-184 -215,-293 -81,-100 -161,-190 -202,-212 42,45 99,125 156,212 78,120 156,254 194,329 497,987 -44,1452 -741,1948z"/>
  <path class="fil17" d="M14588 10016l211 170c176,94 498,506 593,671 381,657 323,1353 -27,1994 -76,139 -167,270 -258,380 -53,64 -93,105 -148,171 -221,266 -676,545 -995,664 -490,182 -1052,189 -1533,25 -296,-101 -403,-192 -604,-289 41,-121 317,-337 434,-422 264,-193 317,-188 521,-316 -177,28 -522,220 -647,302 -245,160 -323,260 -508,430 69,135 472,359 643,439 537,252 1270,255 1817,78 447,-144 827,-405 1126,-754 696,-812 997,-1788 440,-2787 -132,-237 -288,-406 -467,-584 -273,-273 -618,-411 -864,-745 -322,-438 -280,-909 -52,-1383 56,-117 129,-230 193,-322 76,-109 140,-188 151,-212 -38,54 -132,140 -198,212 -9,10 -17,19 -25,28 -225,260 -412,623 -436,994 -27,415 151,766 396,1037 72,79 170,152 239,218z"/>
  <g>
   <path class="fil18 str0" d="M11881 15115c-25,0 -51,10 -79,30 -10,8 -29,28 -57,61 -23,27 -48,63 -74,107 -22,38 -44,75 -66,112 -68,110 -113,191 -135,241 -13,28 -20,61 -22,100 1,0 1,7 1,21l0 144c0,58 1,107 3,147 4,43 21,66 52,71 15,3 37,4 64,4 15,0 22,7 22,19 0,13 -11,20 -33,20l-29 0c-16,0 -41,-1 -75,-2 -34,-1 -58,-2 -74,-2 -8,0 -20,0 -35,1 -15,1 -27,1 -35,1l-13 0c-7,0 -17,0 -30,0 -13,1 -22,1 -29,1 -21,0 -32,-7 -32,-20 0,-13 7,-19 21,-19 2,0 5,0 10,0 5,0 8,0 10,0 5,-1 11,-2 21,-4 23,-5 36,-28 39,-71 3,-52 4,-101 4,-145l0 -126c0,-49 -8,-90 -23,-125 -8,-18 -26,-50 -54,-96l-84 -140c-1,-1 -1,-1 -1,-1l-1 -3c0,-1 0,-2 -1,-3l-73 -116c-37,-60 -63,-99 -78,-117 -38,-48 -74,-76 -108,-86 -7,-2 -12,-3 -15,-3 -17,0 -25,-6 -25,-19 0,-13 10,-20 29,-20 8,0 19,0 33,1 15,0 26,0 33,0l6 0c3,0 6,1 8,3 7,0 17,0 31,0 14,0 24,0 31,0 13,0 33,-1 61,-2 27,-1 48,-2 61,-2 19,0 29,7 29,20 0,9 -4,14 -13,15 -4,1 -8,3 -13,7 -10,5 -15,11 -15,18 0,13 6,30 18,52 25,47 97,172 217,376l39 68c27,-44 64,-112 112,-202l1 -1c0,-1 0,-2 1,-3 26,-45 51,-88 74,-129l45 -77c16,-26 25,-49 25,-69 0,-18 -6,-29 -18,-32 -4,-2 -7,-3 -8,-3l-6 -3c-9,-4 -14,-10 -14,-18 0,-12 11,-18 32,-18l25 0c6,1 12,1 16,1l17 1c17,1 30,1 38,1 7,0 17,0 32,0 14,-1 25,-1 32,-1l10 -1c8,0 19,0 33,0 14,-1 26,-1 33,-1 19,0 29,6 29,18 0,14 -10,21 -29,21zm778 1096c-175,0 -307,-50 -397,-148 -116,-126 -174,-270 -174,-430l0 -1c0,-168 70,-317 209,-448 90,-85 213,-128 371,-128 170,0 309,49 415,148 110,101 165,237 165,405 0,173 -55,317 -166,431 -110,114 -251,171 -423,171zm-1 -1101c-138,0 -245,46 -322,139 -70,86 -105,201 -105,343l0 1c0,152 39,281 116,385 87,116 204,174 352,174 22,0 48,-2 79,-7 99,-18 183,-77 252,-177 51,-71 76,-177 76,-317 0,-147 -37,-271 -112,-372 -81,-113 -193,-169 -335,-169zm1991 558l-4 0c-33,0 -54,9 -64,27 -10,18 -15,62 -15,131l0 232c0,50 -7,79 -22,86l-1 1c-63,32 -141,52 -234,61 -30,4 -56,6 -79,6 -38,0 -85,-3 -142,-10 -131,-15 -244,-64 -340,-147 -56,-48 -100,-112 -132,-191 -29,-75 -43,-151 -43,-229 0,-100 20,-191 59,-275 43,-90 106,-160 187,-210 78,-48 164,-77 260,-86 47,-5 91,-7 130,-7l19 0c34,0 81,5 139,14 30,5 60,11 90,16 37,7 67,10 91,10 18,2 28,9 28,22 0,7 -2,26 -6,58 -3,41 -4,90 -4,148 0,26 -8,39 -23,39 -10,0 -17,-10 -19,-29 -7,-48 -21,-84 -43,-108 -60,-65 -166,-98 -319,-98 -123,0 -225,31 -304,94 -93,73 -139,194 -139,361 0,67 9,127 28,180 31,95 72,166 123,215 102,101 227,152 372,152 72,0 125,-9 161,-29 17,-9 25,-23 25,-42l0 -248c0,-57 -3,-93 -10,-108 -11,-22 -36,-34 -74,-35 -4,-1 -7,-1 -10,-1l-11 0c-14,0 -21,-6 -21,-17 0,-14 11,-22 32,-22l50 1c12,0 31,0 55,1 48,1 68,1 59,1 7,0 19,0 34,-1 15,-1 27,-1 35,-1l13 0c7,0 17,0 30,0 13,-1 22,-1 29,-1 22,0 33,8 33,22 0,11 -7,17 -21,17zm533 -457l0 -1 289 769c52,-120 132,-324 241,-614 28,-74 47,-129 59,-166 9,-26 14,-44 14,-52l0 -6 -1 -1c-2,-8 -6,-14 -14,-18 -9,-2 -17,-3 -22,-4 -5,-1 -9,-1 -13,-1l-16 0c-16,0 -25,-6 -25,-18 0,-14 13,-21 40,-21l26 0c13,0 32,1 58,2 26,1 45,2 58,2 8,0 22,0 43,-1l30 0c8,-2 15,-3 22,-3l18 0c23,0 35,7 35,20 0,13 -9,19 -28,19 -19,0 -38,4 -59,13 -1,1 -2,2 -4,3 -23,15 -49,60 -77,132 -9,26 -29,75 -59,146l-217 519c-34,81 -58,137 -72,168l-35 76c-8,17 -15,27 -21,32 -6,5 -11,7 -15,7 -7,0 -15,-4 -22,-13 -7,-8 -20,-36 -39,-83l-354 -890c-19,-46 -36,-74 -54,-84 -12,-8 -26,-15 -44,-21 -4,0 -7,-1 -11,-3 -18,-2 -32,-3 -40,-3 -14,0 -22,-6 -22,-19 0,-13 15,-20 47,-20l36 0c14,0 36,1 66,2 30,1 52,2 67,2 12,0 30,-1 54,-2 24,-1 42,-2 54,-2l28 0c32,0 49,7 49,20 0,13 -8,19 -25,19l-11 0c-4,0 -8,0 -11,1 -23,0 -37,7 -41,21l0 6c0,8 7,31 21,68zm1189 980c-10,22 -60,16 -72,16 -14,0 -37,1 -67,2 -30,1 -52,2 -66,2l-36 0c-31,0 -47,-7 -47,-21 0,-12 7,-19 22,-19 9,0 22,-1 40,-3 4,-2 8,-3 11,-3 18,-6 32,-13 44,-21 17,-11 35,-39 54,-84l354 -890c19,-48 31,-76 39,-84 7,-8 15,-12 22,-12 4,0 9,2 15,7 6,5 13,15 21,32l35 75c14,31 38,87 72,168l217 519c30,72 50,121 59,146 28,73 54,117 77,132 2,1 3,2 4,3 20,9 40,13 59,13 19,0 28,6 28,19 0,14 -12,21 -35,21l-18 0c-7,0 -14,-1 -22,-3l-30 0c-21,-1 -36,-1 -43,-1 -13,0 -32,1 -58,2 -26,1 -45,2 -58,2l-26 0c-27,0 -40,-8 -40,-22 0,-11 8,-17 25,-17l16 0c4,0 8,0 13,-1 5,-1 12,-2 22,-4 7,-4 12,-10 14,-18l1 -1 0 -6c0,-9 -5,-26 -14,-52 -11,-38 -31,-93 -59,-166 -108,-290 -189,-495 -241,-615 -106,283 -209,614 -333,883zm2236 -1076c-41,0 -64,11 -71,33 -5,18 -7,49 -7,91l-3 848c0,50 -1,80 -4,90 -3,15 -10,23 -19,23 -13,0 -50,-32 -112,-95 -62,-63 -155,-159 -278,-287l-7 -7c-21,-23 -54,-57 -97,-103l-4 -3c-33,-33 -151,-162 -355,-389l17 667c2,58 7,98 16,122 8,27 25,40 49,40 16,4 34,6 55,6 14,0 22,7 22,19 0,13 -12,20 -36,20 -42,0 -76,-1 -103,-3 -5,0 -13,0 -26,-1 -10,0 -18,0 -24,0 -15,0 -39,1 -70,2 -31,1 -54,2 -70,2 -21,0 -32,-7 -32,-20 0,-13 7,-19 22,-19 14,0 28,-1 39,-3 17,-6 28,-11 33,-14 5,-4 9,-14 13,-29 5,-25 7,-71 8,-137l1 -832c0,-28 1,-48 3,-58 4,-16 11,-23 22,-23 9,0 20,9 35,26 8,7 16,16 23,25 16,18 68,74 155,168l306 329c14,15 37,39 66,71l264 289 -15 -713c-2,-45 -6,-77 -13,-95 -9,-22 -28,-34 -57,-35 -15,-3 -32,-4 -50,-4 -13,0 -20,-6 -20,-19 0,-13 13,-20 38,-20l14 0c16,0 38,1 68,2 30,1 53,2 68,2 14,0 34,-1 62,-2 27,-1 48,-2 61,-2 24,0 36,7 36,20 0,13 -9,19 -26,19z"/>
   <path id="1" class="fil19" d="M11881 15115c-25,0 -51,10 -79,30 -10,8 -29,28 -57,61 -23,27 -48,63 -74,107 -22,38 -44,75 -66,112 -68,110 -113,191 -135,241 -13,28 -20,61 -22,100 1,0 1,7 1,21l0 144c0,58 1,107 3,147 4,43 21,66 52,71 15,3 37,4 64,4 15,0 22,7 22,19 0,13 -11,20 -33,20l-29 0c-16,0 -41,-1 -75,-2 -34,-1 -58,-2 -74,-2 -8,0 -20,0 -35,1 -15,1 -27,1 -35,1l-13 0c-7,0 -17,0 -30,0 -13,1 -22,1 -29,1 -21,0 -32,-7 -32,-20 0,-13 7,-19 21,-19 2,0 5,0 10,0 5,0 8,0 10,0 5,-1 11,-2 21,-4 23,-5 36,-28 39,-71 3,-52 4,-101 4,-145l0 -126c0,-49 -8,-90 -23,-125 -8,-18 -26,-50 -54,-96l-84 -140c-1,-1 -1,-1 -1,-1l-1 -3c0,-1 0,-2 -1,-3l-73 -116c-37,-60 -63,-99 -78,-117 -38,-48 -74,-76 -108,-86 -7,-2 -12,-3 -15,-3 -17,0 -25,-6 -25,-19 0,-13 10,-20 29,-20 8,0 19,0 33,1 15,0 26,0 33,0l6 0c3,0 6,1 8,3 7,0 17,0 31,0 14,0 24,0 31,0 13,0 33,-1 61,-2 27,-1 48,-2 61,-2 19,0 29,7 29,20 0,9 -4,14 -13,15 -4,1 -8,3 -13,7 -10,5 -15,11 -15,18 0,13 6,30 18,52 25,47 97,172 217,376l39 68c27,-44 64,-112 112,-202l1 -1c0,-1 0,-2 1,-3 26,-45 51,-88 74,-129l45 -77c16,-26 25,-49 25,-69 0,-18 -6,-29 -18,-32 -4,-2 -7,-3 -8,-3l-6 -3c-9,-4 -14,-10 -14,-18 0,-12 11,-18 32,-18l25 0c6,1 12,1 16,1l17 1c17,1 30,1 38,1 7,0 17,0 32,0 14,-1 25,-1 32,-1l10 -1c8,0 19,0 33,0 14,-1 26,-1 33,-1 19,0 29,6 29,18 0,14 -10,21 -29,21zm778 1096c-175,0 -307,-50 -397,-148 -116,-126 -174,-270 -174,-430l0 -1c0,-168 70,-317 209,-448 90,-85 213,-128 371,-128 170,0 309,49 415,148 110,101 165,237 165,405 0,173 -55,317 -166,431 -110,114 -251,171 -423,171zm-1 -1101c-138,0 -245,46 -322,139 -70,86 -105,201 -105,343l0 1c0,152 39,281 116,385 87,116 204,174 352,174 22,0 48,-2 79,-7 99,-18 183,-77 252,-177 51,-71 76,-177 76,-317 0,-147 -37,-271 -112,-372 -81,-113 -193,-169 -335,-169zm1991 558l-4 0c-33,0 -54,9 -64,27 -10,18 -15,62 -15,131l0 232c0,50 -7,79 -22,86l-1 1c-63,32 -141,52 -234,61 -30,4 -56,6 -79,6 -38,0 -85,-3 -142,-10 -131,-15 -244,-64 -340,-147 -56,-48 -100,-112 -132,-191 -29,-75 -43,-151 -43,-229 0,-100 20,-191 59,-275 43,-90 106,-160 187,-210 78,-48 164,-77 260,-86 47,-5 91,-7 130,-7l19 0c34,0 81,5 139,14 30,5 60,11 90,16 37,7 67,10 91,10 18,2 28,9 28,22 0,7 -2,26 -6,58 -3,41 -4,90 -4,148 0,26 -8,39 -23,39 -10,0 -17,-10 -19,-29 -7,-48 -21,-84 -43,-108 -60,-65 -166,-98 -319,-98 -123,0 -225,31 -304,94 -93,73 -139,194 -139,361 0,67 9,127 28,180 31,95 72,166 123,215 102,101 227,152 372,152 72,0 125,-9 161,-29 17,-9 25,-23 25,-42l0 -248c0,-57 -3,-93 -10,-108 -11,-22 -36,-34 -74,-35 -4,-1 -7,-1 -10,-1l-11 0c-14,0 -21,-6 -21,-17 0,-14 11,-22 32,-22l50 1c12,0 31,0 55,1 48,1 68,1 59,1 7,0 19,0 34,-1 15,-1 27,-1 35,-1l13 0c7,0 17,0 30,0 13,-1 22,-1 29,-1 22,0 33,8 33,22 0,11 -7,17 -21,17zm533 -457l0 -1 289 769c52,-120 132,-324 241,-614 28,-74 47,-129 59,-166 9,-26 14,-44 14,-52l0 -6 -1 -1c-2,-8 -6,-14 -14,-18 -9,-2 -17,-3 -22,-4 -5,-1 -9,-1 -13,-1l-16 0c-16,0 -25,-6 -25,-18 0,-14 13,-21 40,-21l26 0c13,0 32,1 58,2 26,1 45,2 58,2 8,0 22,0 43,-1l30 0c8,-2 15,-3 22,-3l18 0c23,0 35,7 35,20 0,13 -9,19 -28,19 -19,0 -38,4 -59,13 -1,1 -2,2 -4,3 -23,15 -49,60 -77,132 -9,26 -29,75 -59,146l-217 519c-34,81 -58,137 -72,168l-35 76c-8,17 -15,27 -21,32 -6,5 -11,7 -15,7 -7,0 -15,-4 -22,-13 -7,-8 -20,-36 -39,-83l-354 -890c-19,-46 -36,-74 -54,-84 -12,-8 -26,-15 -44,-21 -4,0 -7,-1 -11,-3 -18,-2 -32,-3 -40,-3 -14,0 -22,-6 -22,-19 0,-13 15,-20 47,-20l36 0c14,0 36,1 66,2 30,1 52,2 67,2 12,0 30,-1 54,-2 24,-1 42,-2 54,-2l28 0c32,0 49,7 49,20 0,13 -8,19 -25,19l-11 0c-4,0 -8,0 -11,1 -23,0 -37,7 -41,21l0 6c0,8 7,31 21,68zm1189 980c-10,22 -60,16 -72,16 -14,0 -37,1 -67,2 -30,1 -52,2 -66,2l-36 0c-31,0 -47,-7 -47,-21 0,-12 7,-19 22,-19 9,0 22,-1 40,-3 4,-2 8,-3 11,-3 18,-6 32,-13 44,-21 17,-11 35,-39 54,-84l354 -890c19,-48 31,-76 39,-84 7,-8 15,-12 22,-12 4,0 9,2 15,7 6,5 13,15 21,32l35 75c14,31 38,87 72,168l217 519c30,72 50,121 59,146 28,73 54,117 77,132 2,1 3,2 4,3 20,9 40,13 59,13 19,0 28,6 28,19 0,14 -12,21 -35,21l-18 0c-7,0 -14,-1 -22,-3l-30 0c-21,-1 -36,-1 -43,-1 -13,0 -32,1 -58,2 -26,1 -45,2 -58,2l-26 0c-27,0 -40,-8 -40,-22 0,-11 8,-17 25,-17l16 0c4,0 8,0 13,-1 5,-1 12,-2 22,-4 7,-4 12,-10 14,-18l1 -1 0 -6c0,-9 -5,-26 -14,-52 -11,-38 -31,-93 -59,-166 -108,-290 -189,-495 -241,-615 -106,283 -209,614 -333,883zm2236 -1076c-41,0 -64,11 -71,33 -5,18 -7,49 -7,91l-3 848c0,50 -1,80 -4,90 -3,15 -10,23 -19,23 -13,0 -50,-32 -112,-95 -62,-63 -155,-159 -278,-287l-7 -7c-21,-23 -54,-57 -97,-103l-4 -3c-33,-33 -151,-162 -355,-389l17 667c2,58 7,98 16,122 8,27 25,40 49,40 16,4 34,6 55,6 14,0 22,7 22,19 0,13 -12,20 -36,20 -42,0 -76,-1 -103,-3 -5,0 -13,0 -26,-1 -10,0 -18,0 -24,0 -15,0 -39,1 -70,2 -31,1 -54,2 -70,2 -21,0 -32,-7 -32,-20 0,-13 7,-19 22,-19 14,0 28,-1 39,-3 17,-6 28,-11 33,-14 5,-4 9,-14 13,-29 5,-25 7,-71 8,-137l1 -832c0,-28 1,-48 3,-58 4,-16 11,-23 22,-23 9,0 20,9 35,26 8,7 16,16 23,25 16,18 68,74 155,168l306 329c14,15 37,39 66,71l264 289 -15 -713c-2,-45 -6,-77 -13,-95 -9,-22 -28,-34 -57,-35 -15,-3 -32,-4 -50,-4 -13,0 -20,-6 -20,-19 0,-13 13,-20 38,-20l14 0c16,0 38,1 68,2 30,1 53,2 68,2 14,0 34,-1 62,-2 27,-1 48,-2 61,-2 24,0 36,7 36,20 0,13 -9,19 -26,19z"/>
  </g>
  <polygon class="fil20" points="16624,15791 16696,15791 16696,15893 16624,15893 "/>
  <polygon class="fil20" points="16624,15931 16696,15931 16696,16033 16624,16033 "/>
  <polygon class="fil21" points="16724,15791 16797,15791 16797,15893 16724,15893 "/>
  <polygon class="fil21" points="16724,15931 16797,15931 16797,16033 16724,16033 "/>
  <polygon class="fil22" points="9748,7181 19766,7181 19766,17177 9748,17177 "/>
  <path class="fil23" d="M12164 16532c25,0 47,5 66,16 20,10 35,25 46,44 11,19 17,40 17,64 0,24 -6,45 -17,64 -11,19 -27,33 -46,44 -20,11 -42,16 -67,16l-101 0 0 -247 103 0zm1 206c15,0 29,-3 41,-10 12,-7 22,-17 28,-29 7,-12 10,-26 10,-42 0,-16 -4,-30 -11,-43 -7,-13 -17,-22 -29,-29 -12,-7 -26,-10 -42,-10l-55 0 0 164 57 0zm191 -206l47 0 0 247 -47 0 0 -247zm285 64c-13,-8 -26,-14 -39,-18 -13,-4 -25,-6 -35,-6 -11,0 -20,2 -27,6 -7,4 -10,10 -10,18 0,7 2,13 7,17 5,5 10,8 17,11 7,3 16,6 28,10 17,5 30,10 41,15 11,5 20,12 27,22 8,10 11,22 11,38 0,15 -4,28 -12,39 -8,11 -19,20 -34,26 -14,6 -31,9 -49,9 -19,0 -38,-4 -57,-11 -18,-7 -34,-17 -48,-29l20 -40c12,12 26,21 42,27 16,7 30,10 43,10 13,0 24,-3 31,-8 8,-5 11,-12 11,-21 0,-7 -2,-13 -7,-17 -5,-5 -10,-8 -17,-11 -7,-3 -17,-6 -29,-10 -17,-5 -30,-10 -41,-14 -11,-5 -20,-12 -27,-21 -8,-10 -11,-22 -11,-38 0,-14 4,-27 11,-38 8,-11 18,-19 32,-25 14,-6 30,-9 49,-9 16,0 32,2 48,7 16,5 30,11 42,19l-19 41zm267 8c-9,-10 -19,-18 -31,-24 -12,-6 -24,-8 -36,-8 -15,0 -29,4 -42,11 -13,7 -23,17 -30,30 -7,13 -11,27 -11,42 0,15 4,29 11,42 7,13 17,23 30,30 13,7 27,11 42,11 12,0 24,-3 35,-8 12,-5 22,-12 32,-22l28 31c-13,13 -28,24 -45,31 -17,8 -35,11 -52,11 -24,0 -46,-6 -65,-17 -20,-11 -35,-27 -47,-46 -11,-19 -17,-41 -17,-64 0,-24 6,-45 17,-64 12,-19 27,-34 47,-46 20,-11 42,-17 66,-17 18,0 35,4 52,11 17,7 31,17 43,29l-28 35zm196 -75c25,0 47,6 67,17 20,11 36,26 48,46 12,19 17,41 17,64 0,24 -6,45 -17,64 -12,19 -27,35 -48,46 -20,11 -42,17 -67,17 -24,0 -47,-6 -67,-17 -20,-11 -36,-27 -48,-46 -12,-19 -17,-41 -17,-64 0,-24 6,-45 17,-64 12,-19 27,-34 48,-46 20,-11 42,-17 67,-17zm1 42c-15,0 -29,4 -42,11 -13,7 -23,18 -31,30 -8,13 -11,27 -11,43 0,16 4,30 11,43 8,13 18,23 31,31 13,8 27,11 42,11 15,0 29,-4 41,-11 13,-8 23,-18 30,-31 7,-13 11,-27 11,-43 0,-16 -4,-30 -11,-43 -7,-13 -17,-23 -30,-30 -13,-7 -26,-11 -41,-11zm161 -39l51 0 73 195 73 -195 49 0 -99 247 -49 0 -98 -247zm299 0l181 0 0 41 -134 0 0 61 120 0 0 41 -120 0 0 62 138 0 0 41 -185 0 0 -247zm410 247l-43 -73c-2,0 -5,0 -9,0l-56 0 0 73 -47 0 0 -247 103 0c32,0 57,7 74,22 17,15 26,36 26,63 0,19 -4,36 -13,49 -8,14 -21,24 -37,31l54 82 -54 0zm-107 -114l56 0c18,0 32,-4 41,-12 9,-8 14,-19 14,-35 0,-15 -5,-26 -14,-34 -9,-8 -23,-11 -41,-11l-56 0 0 91zm580 -133l-90 166 0 81 -47 0 0 -79 -92 -168 48 0 67 116 66 -116 48 0zm155 -3c25,0 47,6 67,17 20,11 36,26 48,46 12,19 17,41 17,64 0,24 -6,45 -17,64 -12,19 -27,35 -48,46 -20,11 -42,17 -67,17 -24,0 -47,-6 -67,-17 -20,-11 -36,-27 -48,-46 -12,-19 -17,-41 -17,-64 0,-24 6,-45 17,-64 12,-19 27,-34 48,-46 20,-11 42,-17 67,-17zm1 42c-15,0 -29,4 -42,11 -13,7 -23,18 -31,30 -8,13 -11,27 -11,43 0,16 4,30 11,43 8,13 18,23 31,31 13,8 27,11 42,11 15,0 29,-4 41,-11 13,-8 23,-18 30,-31 7,-13 11,-27 11,-43 0,-16 -4,-30 -11,-43 -7,-13 -17,-23 -30,-30 -13,-7 -26,-11 -41,-11zm237 106c0,20 6,35 17,46 11,11 26,17 45,17 19,0 33,-6 44,-17 11,-11 16,-26 16,-46l0 -146 47 0 0 146c0,21 -4,40 -13,56 -9,16 -21,28 -37,37 -16,8 -35,13 -57,13 -22,0 -41,-4 -58,-13 -16,-8 -29,-21 -38,-37 -9,-16 -13,-35 -13,-56l0 -146 47 0 0 146zm401 102l-43 -73c-2,0 -5,0 -9,0l-56 0 0 73 -47 0 0 -247 103 0c32,0 57,7 74,22 17,15 26,36 26,63 0,19 -4,36 -13,49 -8,14 -21,24 -37,31l54 82 -54 0zm-107 -114l56 0c18,0 32,-4 41,-12 9,-8 14,-19 14,-35 0,-15 -5,-26 -14,-34 -9,-8 -23,-11 -41,-11l-56 0 0 91zm385 -69c-13,-8 -26,-14 -39,-18 -13,-4 -25,-6 -35,-6 -11,0 -20,2 -27,6 -7,4 -10,10 -10,18 0,7 2,13 7,17 5,5 10,8 17,11 7,3 16,6 28,10 17,5 30,10 41,15 11,5 20,12 27,22 8,10 11,22 11,38 0,15 -4,28 -12,39 -8,11 -19,20 -34,26 -14,6 -31,9 -49,9 -19,0 -38,-4 -57,-11 -18,-7 -34,-17 -48,-29l20 -40c12,12 26,21 42,27 16,7 30,10 43,10 13,0 24,-3 31,-8 8,-5 11,-12 11,-21 0,-7 -2,-13 -7,-17 -5,-5 -10,-8 -17,-11 -7,-3 -17,-6 -29,-10 -17,-5 -30,-10 -41,-14 -11,-5 -20,-12 -27,-21 -8,-10 -11,-22 -11,-38 0,-14 4,-27 11,-38 8,-11 18,-19 32,-25 14,-6 30,-9 49,-9 16,0 32,2 48,7 16,5 30,11 42,19l-19 41zm88 -64l181 0 0 41 -134 0 0 61 120 0 0 41 -120 0 0 62 138 0 0 41 -185 0 0 -247zm255 0l47 0 0 204 107 0 0 43 -154 0 0 -247zm213 0l171 0 0 41 -123 0 0 67 112 0 0 41 -112 0 0 98 -47 0 0 -247zm351 0l202 0 0 42 -77 0 0 205 -48 0 0 -205 -77 0 0 -42zm412 247l-43 -73c-2,0 -5,0 -9,0l-56 0 0 73 -47 0 0 -247 103 0c32,0 57,7 74,22 17,15 26,36 26,63 0,19 -4,36 -13,49 -8,14 -21,24 -37,31l54 82 -54 0zm-107 -114l56 0c18,0 32,-4 41,-12 9,-8 14,-19 14,-35 0,-15 -5,-26 -14,-34 -9,-8 -23,-11 -41,-11l-56 0 0 91zm272 13c0,20 6,35 17,46 11,11 26,17 45,17 19,0 33,-6 44,-17 11,-11 16,-26 16,-46l0 -146 47 0 0 146c0,21 -4,40 -13,56 -9,16 -21,28 -37,37 -16,8 -35,13 -57,13 -22,0 -41,-4 -58,-13 -16,-8 -29,-21 -38,-37 -9,-16 -13,-35 -13,-56l0 -146 47 0 0 146zm246 -146l47 0 0 204 107 0 0 43 -154 0 0 -247zm412 0l-90 166 0 81 -47 0 0 -79 -92 -168 48 0 67 116 66 -116 48 0z"/>
  <polygon class="fil22" points="8841,6555 20663,6555 20663,17789 8841,17789 "/>
 </g>
</svg>
